<svg width="376" height="250" viewBox="0 0 376 250" fill="none" xmlns="http://www.w3.org/2000/svg">
<g clip-path="url(#clip0_171_17744)">
<path d="M375.823 250H0.175781V0H375.823V250Z" fill="#F9FCFE"/>
<path fill-rule="evenodd" clip-rule="evenodd" d="M185.621 27.5409C210.879 27.5409 207.997 72.0727 226.232 85.6454C250.366 103.612 291.886 94.7166 291.886 125.549C291.886 179.679 238.031 199.288 179.343 199.288C120.653 199.288 70.5734 169.268 88.0502 115.282C105.524 61.2969 126.933 27.5409 185.621 27.5409Z" fill="#EEF2FA"/>
<path fill-rule="evenodd" clip-rule="evenodd" d="M134.138 192.877C142.075 182.952 137.5 162.332 123.462 157.915C119.104 156.544 114.534 156.827 110.21 157.859C107.113 158.595 106.175 158.703 109.53 160.065C112.293 161.18 114.838 162.671 117.269 164.403C111.324 163.285 104.813 164.683 99.2409 166.641C95.3614 168.003 97.0605 168.159 99.1682 168.77C101.519 169.448 103.786 170.682 105.849 172.173C100.619 172.323 95.4092 174.874 91.1514 177.577C87.3698 179.973 83.2649 183.192 80.5416 187.136C77.8433 191.053 77.8964 190.82 82.126 192.502C86.6043 194.283 91.8394 194.67 96.3333 194.553C101.379 194.423 107.13 193.638 111.552 190.853C110.7 193.174 109.547 195.402 108.038 197.247C106.615 198.986 105.838 200.005 109.533 199.026C115.15 197.539 121.159 195.089 125.375 190.942C124.339 193.686 123.086 196.292 121.463 198.723C119.238 202.045 120.753 201.206 123.167 200.308C127.333 198.75 131.287 196.444 134.138 192.877Z" fill="#7FAFE2"/>
<path fill-rule="evenodd" clip-rule="evenodd" d="M155.049 186.326C158.223 184.926 161.003 181.745 159.691 176.076C159.223 174.059 154.765 159.464 154.025 157.527C151.947 152.091 147.865 150.998 144.448 151.608C142.167 152.011 133.142 154.821 131.101 156.048C129.425 157.056 127.999 158.395 127.041 160.3C123.744 166.841 129.357 185.214 135.746 188.805C137.603 189.85 139.539 190.167 141.49 190.073C143.871 189.953 152.929 187.259 155.049 186.326Z" fill="#7FAFE2"/>
<path fill-rule="evenodd" clip-rule="evenodd" d="M133.968 187.418C134.548 187.995 135.144 188.468 135.745 188.805C137.603 189.85 139.538 190.167 141.49 190.073C143.871 189.953 152.929 187.259 155.049 186.326C158.222 184.926 161.003 181.745 159.69 176.076C159.223 174.059 154.765 159.464 154.024 157.527C151.946 152.091 147.864 150.998 144.447 151.608C142.167 152.011 133.141 154.821 131.1 156.048C129.425 157.056 127.998 158.395 127.04 160.3C126.818 160.742 126.639 161.239 126.494 161.782C127.573 160.3 129.084 159.205 131.165 158.868C135.286 158.205 137.711 165.6 138.722 168.403C140.273 172.703 141.501 177.406 141.604 181.998C141.668 185.024 140.518 188.089 137.101 188.145C136.052 188.162 134.988 187.873 133.968 187.418Z" fill="#588CD0"/>
<path fill-rule="evenodd" clip-rule="evenodd" d="M226.45 174.402C242.924 164.861 256.435 151.549 261.468 137.08C262.253 134.827 262.27 134.733 260.298 133.249C247.992 124.008 229.424 120.625 210.38 121.777C186.908 123.194 162.938 133.137 143.564 145.839C132.142 153.32 143.943 191.779 157.551 191.642C180.837 191.392 206.013 186.23 226.45 174.402Z" fill="#AED1F0"/>
<path fill-rule="evenodd" clip-rule="evenodd" d="M240.543 164.68C229.92 171.361 218.321 176.449 206.234 179.903C195.624 182.939 183.936 185.335 172.853 184.988C167.505 184.82 162.03 183.697 157.683 180.423C153.265 177.095 150.434 171.105 149.178 165.853C147.903 160.523 148.88 154.979 151.773 150.348C154.742 145.602 159.623 142.611 164.452 140.046C175.276 134.297 187.035 130.127 198.809 126.791C206.514 124.609 214.467 122.735 222.492 121.687C218.514 121.504 214.46 121.529 210.38 121.777C186.908 123.194 162.938 133.137 143.564 145.839C132.142 153.32 143.943 191.779 157.551 191.642C180.837 191.392 206.013 186.23 226.45 174.402C231.476 171.488 236.225 168.223 240.543 164.68Z" fill="#7FAFE2"/>
<path fill-rule="evenodd" clip-rule="evenodd" d="M151.704 153.662C147.872 154.706 146.744 153.517 145.92 152.474C144.408 150.567 142.484 148.163 141.668 147.621C140.439 146.809 138.649 146.528 137.107 146.283C131.598 145.425 104.403 145.267 96.5532 145.163C88.9398 145.06 87.6677 145.136 95.9994 141.683C105.244 137.852 143.533 127.155 147.424 126.318C150.585 125.64 155.323 124.167 158.148 125.754C161.768 127.791 164.83 130.706 167.816 133.346C170.364 135.601 172.834 137.919 175.265 140.262C177.543 142.456 161.218 151.07 151.704 153.662ZM159.922 180.576C156.159 181.844 155.886 183.459 155.786 184.785C155.599 187.209 155.343 190.279 154.971 191.179C154.405 192.538 153.077 193.77 151.932 194.829C147.842 198.609 125.358 213.888 118.903 218.347C112.64 222.67 111.546 223.317 120.387 221.544C130.2 219.573 167.952 207.126 171.65 205.653C174.655 204.454 179.412 203.039 180.867 200.148C182.731 196.439 183.649 192.318 184.653 188.465C185.504 185.174 186.26 181.877 186.966 178.577C187.629 175.489 169.267 177.432 159.922 180.576Z" fill="#7FAFE2"/>
<path fill-rule="evenodd" clip-rule="evenodd" d="M118.905 218.347C117.852 219.071 116.95 219.692 116.209 220.217C119.317 218.747 122.377 217.186 125.404 215.635C133.173 211.653 140.822 207.432 148.38 203.068C153.335 200.207 159.831 197.52 160.775 191.254C161.069 189.288 161.037 186.883 162.133 185.151C163.951 182.268 168.317 180.979 171.384 179.944C175.517 178.547 179.741 177.797 184.003 177.112C178.528 176.606 166.793 178.264 159.923 180.576C156.161 181.844 155.888 183.459 155.787 184.785C155.601 187.209 155.344 190.279 154.972 191.179C154.406 192.538 153.078 193.77 151.933 194.829C147.843 198.609 125.359 213.888 118.905 218.347Z" fill="#588CD0"/>
<path fill-rule="evenodd" clip-rule="evenodd" d="M161.568 147.806C158.443 148.655 154.099 150.014 150.98 148.638C149.101 147.806 147.786 145.797 146.444 144.33C142.159 139.653 135.267 141.041 129.555 141.424C120.842 142.014 112.14 142.772 103.463 143.79C100.085 144.187 96.6741 144.599 93.2734 145.108C94.1817 145.133 95.2761 145.143 96.5538 145.163C104.404 145.267 131.599 145.425 137.107 146.283C138.65 146.528 140.44 146.809 141.669 147.621C142.485 148.163 144.408 150.567 145.921 152.474C146.745 153.517 147.873 154.706 151.705 153.662C158.696 151.758 169.362 146.597 173.622 143.126C169.708 144.932 165.781 146.662 161.568 147.806Z" fill="#588CD0"/>
<path fill-rule="evenodd" clip-rule="evenodd" d="M191.76 139.072C188.421 142.689 186.579 147.548 186.716 152.467C186.877 158.355 190.001 163.215 194.121 166.468C197.825 169.392 202.335 171.018 206.239 170.932C208.05 170.738 209.915 170.655 211.626 170.02C214.896 169.012 217.7 167.261 220.024 164.759C223.353 161.156 225.191 156.308 225.058 151.401C224.814 144.109 220.65 138.904 215.546 135.911C211.316 133.432 206.512 132.999 202.194 133.796C197.875 134.594 194.045 136.623 191.76 139.072Z" fill="#94BFE9"/>
<path fill-rule="evenodd" clip-rule="evenodd" d="M194.121 166.468C197.825 169.392 202.335 171.018 206.239 170.932C208.05 170.738 209.915 170.655 211.626 170.02C212.225 169.835 212.8 169.615 213.37 169.385C204.91 171.298 199.106 167.994 195.723 163.098C189.738 154.442 189.108 142.08 203.41 137.032C208.284 135.309 214.104 135.459 219.52 138.927C218.311 137.755 216.967 136.743 215.546 135.911C211.316 133.432 206.512 132.999 202.194 133.796C197.875 134.594 194.045 136.623 191.76 139.072C188.421 142.689 186.579 147.548 186.716 152.467C186.877 158.355 190.001 163.215 194.121 166.468Z" fill="#7FAFE2"/>
<path fill-rule="evenodd" clip-rule="evenodd" d="M205.924 141.452C202.965 142.82 200.847 145.667 200.497 149.672C200.202 153.047 201.75 156.699 204.103 159.282C208.21 163.791 213.77 163.911 217.555 161.403C221.34 158.892 223.353 153.756 220.373 147.748C217.793 142.536 212.006 138.639 205.924 141.452Z" fill="white"/>
<path fill-rule="evenodd" clip-rule="evenodd" d="M252.448 152.797C256.46 147.815 259.568 142.531 261.468 137.08C262.253 134.827 262.27 134.733 260.298 133.249C256.135 130.121 251.251 127.667 245.876 125.832C241.526 124.347 239.087 127.77 238.656 132.095C237.926 139.459 240.777 146.836 245.667 152.296C248.071 154.976 250.301 155.462 252.448 152.797Z" fill="#94BFE9"/>
<path fill-rule="evenodd" clip-rule="evenodd" d="M245.667 152.296C248.071 154.976 250.301 155.462 252.448 152.797C252.949 152.174 253.439 151.546 253.913 150.912C252.022 151.357 250.081 151.078 248.062 149.528C244.809 147.026 243.138 142.381 243.604 138.386C244.009 134.892 246.438 131.875 249.689 130.619C252.262 129.624 254.608 130.058 256.892 130.938C253.549 128.884 249.847 127.189 245.876 125.832C241.526 124.347 239.087 127.77 238.656 132.095C237.926 139.459 240.777 146.836 245.667 152.296Z" fill="#7FAFE2"/>
<path fill-rule="evenodd" clip-rule="evenodd" d="M123.167 200.308C127.333 198.75 131.287 196.444 134.138 192.877C134.486 192.445 134.798 191.982 135.099 191.509C132.637 193.324 130.129 195.041 127.458 196.491C124.525 198.083 124.762 197.047 125.659 194.962C126.333 193.388 126.881 191.765 127.333 190.158C128.004 187.785 127.023 188.062 125.575 189.248C121.9 192.261 117.737 194.253 113.353 195.744C109.697 196.983 110.685 196.311 111.911 194.286C112.599 193.15 113.167 191.97 113.582 190.803C114.409 188.435 113.774 188.173 111.741 189.002C104.479 191.976 96.4927 193.277 88.7175 191.779C80.8955 190.271 81.3463 189.129 86.381 184.126C91.9948 178.555 99.3525 175.189 107.041 173.609C109.19 173.167 109.572 172.597 107.561 171.094C106.564 170.349 105.434 169.692 104.228 169.132C102.081 168.136 100.884 168.126 104.609 167.121C109.082 165.918 113.652 165.247 118.385 165.702C120.251 165.882 121.22 165.568 119.335 163.967C118.062 162.886 116.701 161.842 115.261 160.917C113.353 159.683 112.576 158.953 115.899 158.642C118.948 158.362 122.008 158.389 125.085 158.523C124.557 158.299 124.019 158.089 123.462 157.915C119.104 156.544 114.534 156.827 110.21 157.859C107.113 158.595 106.175 158.703 109.53 160.065C112.293 161.18 114.838 162.671 117.269 164.403C111.324 163.285 104.813 164.683 99.2409 166.641C95.3613 168.003 97.0605 168.159 99.1682 168.77C101.519 169.448 103.786 170.682 105.849 172.173C100.619 172.323 95.4092 174.874 91.1514 177.577C87.3698 179.973 83.2649 183.192 80.5415 187.136C77.8433 191.053 77.8964 190.82 82.126 192.502C86.6043 194.283 91.8394 194.67 96.3333 194.553C101.379 194.423 107.13 193.638 111.552 190.853C110.7 193.174 109.547 195.402 108.038 197.247C106.615 198.986 105.838 200.005 109.533 199.026C115.15 197.539 121.159 195.089 125.375 190.942C124.339 193.686 123.086 196.292 121.463 198.723C119.238 202.045 120.753 201.206 123.167 200.308Z" fill="#AED1F0"/>
<path fill-rule="evenodd" clip-rule="evenodd" d="M157.782 69.5697C156.794 71.3742 155.123 74.8651 153.037 75.5439C151.639 76.0061 144.703 77.8651 144.948 79.45C153.054 80.4924 129.969 80.9151 144.166 90.5939C144.592 90.8864 143.789 91.0409 142.539 92.4227C141.676 93.3773 142.96 94.8167 143.286 94.9727C145.524 96.0394 148.186 96.2515 150.562 94.8697C152.216 94.6773 155.446 94.8273 156.354 95.0121C159.082 95.5651 162.938 92.8909 165.613 90.1303C168.292 87.3757 166.304 86.2045 166.917 84.3303C167.668 83.9227 170.448 84.8121 170.695 80.0273C171.065 75.9136 170.064 71.9167 168.276 70.0712C168.072 69.3591 167.643 68.0182 167.108 67.6909C164.226 65.9394 160.247 67.4424 158.832 68.4409C158.331 68.7894 157.997 69.1757 157.782 69.5697Z" fill="#2C3F95"/>
<path fill-rule="evenodd" clip-rule="evenodd" d="M195.363 77.3956C194.906 78.0516 194.344 78.8122 194.24 78.7486C194.062 78.641 194.085 78.1077 194.126 77.9319C194.168 77.7577 194.199 77.5562 194.24 77.385C194.282 77.2062 194.174 77.0365 193.939 76.9865C193.71 76.9365 193.377 77.6062 193.314 77.8486C193.113 78.6304 193.041 80.7925 193.021 81.0259C192.998 81.2956 183.259 90.6668 182.185 91.5032L176.781 87.4592L173.422 93.1486L182.041 97.6274C185.001 98.5282 194.658 83.5729 194.967 83.1198C194.967 83.1198 196.279 81.9759 197.161 81.2925C197.652 80.9122 198.032 80.4532 198.312 80.0835L195.363 77.3956Z" fill="#F8A56A"/>
<path fill-rule="evenodd" clip-rule="evenodd" d="M194.511 80.6924C194.511 80.6924 195.08 79.2893 194.291 78.7469C194.291 78.7469 194.872 78.8878 194.986 79.4409C195.098 79.9969 194.511 80.6924 194.511 80.6924Z" fill="#2A9EF4"/>
<path fill-rule="evenodd" clip-rule="evenodd" d="M165.934 83.6395C165.934 83.6395 168.213 83.494 169.254 83.6562C169.91 83.7471 170.678 83.9168 171.425 84.1956C174.327 85.2956 181.143 89.4486 181.143 89.4486C181.143 89.4486 180.697 91.1031 179.695 92.5016C178.657 93.9546 176.896 95.2471 176.896 95.2471C176.896 95.2471 172.697 93.1349 169.72 90.7168C166.034 87.7137 165.934 83.6395 165.934 83.6395Z" fill="#4DB3FF"/>
<path fill-rule="evenodd" clip-rule="evenodd" d="M150.918 159.391C149.462 162.129 147.674 164.423 147.445 164.691C147.337 164.82 146.526 165.193 146.41 165.33C145.725 168.893 147.668 171.514 149.634 173.505C149.637 171.633 149.462 169.102 149.726 168.739C150.15 168.164 151.534 165.783 154.574 162.629C152.633 162.009 152.232 160.8 150.918 159.391Z" fill="#F8A56A"/>
<path fill-rule="evenodd" clip-rule="evenodd" d="M147.349 164.761C146.023 165.059 143.609 166.212 143.659 166.455C143.718 166.738 146.622 176.45 148.493 177.044C149.618 177.399 149.585 175.82 149.634 173.505C147.668 171.514 146.572 165.209 147.349 164.761Z" fill="#2C3F95"/>
<path fill-rule="evenodd" clip-rule="evenodd" d="M169.875 110.637L173.081 108.586C173.081 108.586 176.142 114.037 177.44 115.652C178.241 116.65 183.678 121.525 187.982 125.537C184.125 126.571 180.302 127.791 176.532 129.17L171.718 125.866L169.875 110.637Z" fill="#4154AE"/>
<path fill-rule="evenodd" clip-rule="evenodd" d="M173.082 108.586C173.082 108.586 174.486 139.959 173.081 141.463C171.677 142.973 153.187 164.446 153.187 164.446L149.449 161.449C149.449 161.449 154.837 142.789 163.15 140.029C163.15 140.029 157.568 120.7 158.313 117.164C159.057 113.625 163.127 108.244 163.127 108.244L172.751 107.296L173.082 108.586Z" fill="#4C5FB5"/>
<path fill-rule="evenodd" clip-rule="evenodd" d="M163.379 83.2605C163.379 83.2605 159.594 83.4726 155.757 86.3908C151.919 89.3075 147.572 97.2378 147.572 97.2378C147.572 97.2378 152.641 100.841 154.092 100.582L157.416 95.5196C157.416 95.5196 161.188 102.503 161.245 104.885C161.291 106.803 160.304 110.326 160.304 110.326C160.304 110.326 160.301 110.706 168.057 110.106C171.167 109.853 173.345 108.727 173.345 108.727C173.345 108.727 172.73 105.77 172.871 102.753C173.105 97.8529 174.136 91.8423 174.116 91.0999C174.089 89.9135 170.763 83.7666 169.075 83.6075C167.394 83.4605 163.379 83.2605 163.379 83.2605Z" fill="#2A9EF4"/>
<path fill-rule="evenodd" clip-rule="evenodd" d="M173.238 108.135C170.979 108.705 169.011 109.139 167.549 109.486C166.058 109.837 164.954 110.078 164.239 110.209L163.219 109.653C163.902 109.528 165.975 109.197 167.429 108.855C168.904 108.505 170.905 107.993 173.13 107.435L173.238 108.135Z" fill="#4DB3FF"/>
<path fill-rule="evenodd" clip-rule="evenodd" d="M173.108 107.276C170.852 107.846 169.028 108.232 167.563 108.577C166.078 108.927 164.971 109.169 164.253 109.3L163.236 108.747C163.916 108.622 165.994 108.291 167.447 107.946C168.922 107.598 170.795 107.118 173.018 106.559L173.108 107.276Z" fill="#4DB3FF"/>
<path fill-rule="evenodd" clip-rule="evenodd" d="M163.053 79.7606C163.053 79.7606 163.428 83.0834 163.164 84.3803C162.896 85.6743 165.055 89.8152 168.074 89.95C171.094 90.0879 167.271 84.7121 167.113 83.4334C166.953 82.1546 167.271 78.2076 167.271 78.2076L163.053 79.7606Z" fill="#F8A56A"/>
<path fill-rule="evenodd" clip-rule="evenodd" d="M167.14 80.1834C167.198 79.1106 167.271 78.2076 167.271 78.2076L163.053 79.7606C163.053 79.7606 163.13 80.4455 163.192 81.3122C164.932 81.7015 166.272 81.1531 167.14 80.1834Z" fill="#4DB3FF"/>
<path fill-rule="evenodd" clip-rule="evenodd" d="M169.054 72.6106C169.233 73.3363 169.01 74.0379 168.57 74.1863C168.122 74.3288 167.615 73.856 167.436 73.1318C167.268 72.4136 167.482 71.7045 167.927 71.5636C168.376 71.4182 168.877 71.8863 169.054 72.6106Z" fill="#F8A56A"/>
<path fill-rule="evenodd" clip-rule="evenodd" d="M162.462 70.6183C162.462 70.6183 160.822 71.3441 160.084 73.0289C159.419 74.4244 159.641 75.6941 160.145 76.9668C161.928 81.4547 169.015 84.0698 168.737 75.5668C168.321 71.8441 166.913 69.1228 162.462 70.6183Z" fill="#F8A56A"/>
<path fill-rule="evenodd" clip-rule="evenodd" d="M160.683 75.6137C160.773 76.3834 160.377 77.0364 159.809 77.0622C159.235 77.0955 158.701 76.4925 158.612 75.7182C158.525 74.9485 158.915 74.3046 159.489 74.2713C160.063 74.2379 160.597 74.841 160.683 75.6137Z" fill="#F8A56A"/>
<path fill-rule="evenodd" clip-rule="evenodd" d="M168.853 109.637C168.863 109.778 168.866 109.903 168.854 110.017C168.815 110.765 168.414 111.132 167.942 112.194C167.391 113.403 166.171 113.545 165.685 113.634C165.201 113.714 163.669 112.113 162.018 111.502C161.59 111.349 160.239 110.851 158.476 110.193L158.468 110.187C158.421 110.173 158.375 110.156 158.324 110.134C153.347 108.257 145.291 105.083 145.21 104.083C145.124 103.093 146.993 99.54 148.068 97.5833C149.214 98.3636 152.057 100.224 153.543 100.552L152.587 102.02C152.587 102.02 156.557 104.582 159.843 106.587C161.787 107.771 163.486 108.753 164.003 108.919C165.401 109.344 168.766 108.608 168.853 109.637Z" fill="#F8A56A"/>
<path fill-rule="evenodd" clip-rule="evenodd" d="M157.416 95.5197C157.735 94.9697 157.669 95.5288 159.589 92.2167C161.543 100.996 163.317 105.116 161.811 107.729L160.999 107.262C161.151 106.42 161.259 105.555 161.245 104.885C161.189 102.703 158.026 96.6652 157.492 95.6652L157.416 95.5197Z" fill="#4DB3FF"/>
<path fill-rule="evenodd" clip-rule="evenodd" d="M167.055 67.844C167.055 67.844 164.718 72.494 161.852 72.9122C158.984 73.3349 157.852 72.4577 157.852 72.4577C157.852 72.4577 160.174 70.988 160.934 68.0713C160.934 68.0713 165.929 65.3895 167.055 67.844Z" fill="#2C3F95"/>
<path d="M159.058 72.2772C159.649 72.4135 160.654 72.4666 161.761 72.3029C163.7 72.0211 165.597 69.2302 166.348 67.8605C166.165 67.6347 165.825 67.4241 165.123 67.4241C163.779 67.4241 162.064 68.1984 161.453 68.4969C160.91 70.309 159.829 71.5651 159.058 72.2772ZM160.37 73.6423C158.431 73.6423 157.566 73.0166 157.474 72.9454L156.783 72.4105L157.518 71.9408C157.541 71.9272 159.652 70.5484 160.336 67.9151L160.403 67.6575L160.64 67.5302C160.743 67.4772 163.152 66.1954 165.123 66.1954C166.652 66.1954 167.321 66.9514 167.612 67.5878L167.735 67.8545L167.605 68.1196C167.502 68.3211 165.087 73.062 161.941 73.5196C161.391 73.5999 160.866 73.6423 160.37 73.6423Z" fill="#2C3F95"/>
<path fill-rule="evenodd" clip-rule="evenodd" d="M165.994 70.3395C165.994 70.3395 164.391 73.0592 162.086 73.4092C162.086 73.4092 164.642 72.191 165.378 70.3062C166.113 68.4228 165.994 70.3395 165.994 70.3395Z" fill="#2C3F95"/>
<path fill-rule="evenodd" clip-rule="evenodd" d="M167.797 68.9274C167.326 68.6637 166.989 68.6895 166.781 68.9971C166.85 69.7668 167.167 70.3546 167.733 70.7622C167.56 70.4183 167.583 69.8062 167.797 68.9274Z" fill="#2C3F95"/>
<path fill-rule="evenodd" clip-rule="evenodd" d="M165.568 69.856C166.881 69.312 167.386 68.5666 167.086 67.6272C165.36 66.509 163.608 66.206 161.828 66.712C162.834 66.9181 164.079 67.9666 165.568 69.856Z" fill="#2C3F95"/>
<path fill-rule="evenodd" clip-rule="evenodd" d="M166.5 69.6122C166.5 69.6122 165.782 72.1259 164 72.8865C164 72.8865 165.8 71.3804 165.999 69.7122C166.196 68.0471 166.5 69.6122 166.5 69.6122Z" fill="#2C3F95"/>
<path fill-rule="evenodd" clip-rule="evenodd" d="M167.791 83.5137C168.495 85.3258 168.756 86.3515 169.175 87.2697C169.544 88.3455 169.66 89.1349 169.524 89.6379L169.417 89.8046C168.732 90.3546 167.913 90.4243 166.964 90.0106C166.091 89.6303 165.1 88.8258 163.992 87.5955L163.972 87.5697C163.461 86.8773 163.115 86.1652 162.942 85.4379C162.769 84.7031 162.658 84.2228 162.691 83.344L163.256 83.2697C163.344 84.0834 163.415 84.6531 163.569 85.2894C163.719 85.9243 164.023 86.5546 164.479 87.1758C165.521 88.3288 166.434 89.0788 167.221 89.4212C167.639 89.6076 168.022 89.6682 168.363 89.6076C169.965 89.3182 167.359 84.4652 167.117 83.4728L167.791 83.5137Z" fill="#4DB3FF"/>
<path fill-rule="evenodd" clip-rule="evenodd" d="M149.848 97.144C150.171 97.0622 150.502 97.2546 150.586 97.5773C150.67 97.9 150.477 98.2273 150.151 98.3137C149.829 98.397 149.5 98.2031 149.416 97.8803C149.332 97.5576 149.527 97.2273 149.848 97.144Z" fill="#4DB3FF"/>
<path fill-rule="evenodd" clip-rule="evenodd" d="M150.796 97.959C151.011 97.906 151.228 98.0333 151.283 98.2439C151.339 98.4575 151.211 98.6751 150.997 98.7309C150.782 98.7866 150.565 98.6584 150.509 98.4439C150.454 98.2333 150.582 98.0136 150.796 97.959Z" fill="#4DB3FF"/>
<path fill-rule="evenodd" clip-rule="evenodd" d="M148.955 96.7879C149.168 96.7348 149.388 96.8591 149.443 97.0742C149.499 97.2879 149.368 97.5045 149.157 97.5606C148.942 97.6167 148.725 97.4879 148.67 97.2742C148.613 97.0621 148.741 96.8424 148.955 96.7879Z" fill="#4DB3FF"/>
<path fill-rule="evenodd" clip-rule="evenodd" d="M178.606 90.3802C178.54 90.0515 178.753 89.7348 179.081 89.6681C179.407 89.6015 179.727 89.8151 179.791 90.1409C179.858 90.4696 179.647 90.7893 179.317 90.853C178.993 90.9166 178.672 90.7045 178.606 90.3802Z" fill="#2A9EF4"/>
<path fill-rule="evenodd" clip-rule="evenodd" d="M179.472 89.4789C179.431 89.2652 179.569 89.0546 179.783 89.0092C180.002 88.9682 180.213 89.1076 180.255 89.3213C180.299 89.538 180.16 89.7486 179.943 89.791C179.726 89.8349 179.516 89.6955 179.472 89.4789Z" fill="#2A9EF4"/>
<path fill-rule="evenodd" clip-rule="evenodd" d="M178.201 91.2499C178.158 91.0333 178.298 90.8211 178.515 90.7802C178.729 90.7363 178.942 90.8772 178.983 91.0923C179.027 91.309 178.885 91.5166 178.671 91.562C178.454 91.606 178.245 91.4651 178.201 91.2499Z" fill="#2A9EF4"/>
<path fill-rule="evenodd" clip-rule="evenodd" d="M164.085 74.6379C162.644 74.694 162.834 74.6879 161.977 75.6167C162.134 74.844 162.698 74.4288 163.444 74.3606C163.789 74.3273 163.845 74.2924 164.085 74.6379Z" fill="#2C55A9"/>
<path fill-rule="evenodd" clip-rule="evenodd" d="M163.51 75.5439C163.375 75.5999 163.205 75.4878 163.132 75.3044C163.056 75.1181 163.11 74.9241 163.249 74.8711C163.386 74.8181 163.556 74.9241 163.629 75.1135C163.7 75.2984 163.648 75.4908 163.51 75.5439Z" fill="#2C55A9"/>
<path fill-rule="evenodd" clip-rule="evenodd" d="M165.343 74.2151C166.387 73.3121 166.248 73.4318 167.462 73.559C166.841 73.0863 166.175 73.1499 165.607 73.5863C165.343 73.7924 165.284 73.8045 165.343 74.2151Z" fill="#2C55A9"/>
<path fill-rule="evenodd" clip-rule="evenodd" d="M166.371 74.5682C166.516 74.5318 166.596 74.3485 166.549 74.1546C166.505 73.9591 166.349 73.8318 166.201 73.8652C166.057 73.9015 165.975 74.0879 166.024 74.2788C166.068 74.4743 166.226 74.6015 166.371 74.5682Z" fill="#2C55A9"/>
<path d="M165.222 77.3333C165.179 77.3333 165.138 77.309 165.125 77.2666C165.102 77.212 165.129 77.1499 165.182 77.1302C165.182 77.1302 165.284 77.0923 165.486 77.0151C165.626 76.962 165.723 76.9135 165.745 76.8651C165.762 76.8226 165.745 76.7423 165.686 76.609C165.645 76.509 165.572 76.3969 165.481 76.259C165.334 76.0363 165.129 75.7302 164.938 75.2802C164.915 75.2272 164.941 75.162 164.994 75.1408C165.047 75.1151 165.111 75.1469 165.132 75.1969C165.316 75.6302 165.506 75.9136 165.656 76.1423C165.755 76.2908 165.832 76.409 165.882 76.5257C165.955 76.6923 165.99 76.8287 165.941 76.9484C165.885 77.0787 165.735 77.1454 165.562 77.212C165.361 77.2863 165.261 77.3257 165.261 77.3257C165.248 77.3317 165.235 77.3333 165.222 77.3333Z" fill="#F68366"/>
<path fill-rule="evenodd" clip-rule="evenodd" d="M164.553 78.6954C165.888 78.2848 166.869 77.8287 166.618 78.2075C166.36 78.6408 165.436 78.8848 164.553 78.6954Z" fill="white"/>
<path fill-rule="evenodd" clip-rule="evenodd" d="M166.155 73.8818C166.131 73.8924 166.134 73.9561 166.158 74.0288C166.187 74.0985 166.231 74.1454 166.254 74.1379C166.281 74.1258 166.278 74.0621 166.251 73.9924C166.224 73.9212 166.181 73.8727 166.155 73.8818Z" fill="#AED1F0"/>
<path fill-rule="evenodd" clip-rule="evenodd" d="M163.355 74.8832C163.329 74.8938 163.329 74.9605 163.358 75.0256C163.385 75.0984 163.426 75.1483 163.455 75.1377C163.476 75.1271 163.476 75.0635 163.452 74.9938C163.425 74.9241 163.379 74.8741 163.355 74.8832Z" fill="#AED1F0"/>
<path fill-rule="evenodd" clip-rule="evenodd" d="M162.842 45.365C162.728 57.0135 150.409 54.7666 147.641 68.2605C159.888 58.356 168.102 67.512 173.046 56.2181L162.842 45.365Z" fill="#2A9EF4"/>
<path fill-rule="evenodd" clip-rule="evenodd" d="M161.999 43.2696C162.325 42.9605 162.852 42.9772 163.158 43.3059L208.197 91.2226C208.506 91.5499 208.489 92.0726 208.16 92.3787C207.829 92.6878 207.309 92.6711 207.002 92.3423L161.961 44.4256C161.651 44.0984 161.671 43.5756 161.999 43.2696Z" fill="#6D9EDA"/>
<path fill-rule="evenodd" clip-rule="evenodd" d="M195.777 76.7561C199.228 77.1289 199.266 81.1531 198.091 80.8258C195.997 80.2425 194.647 78.5379 195.072 77.0167C195.179 76.6364 195.376 76.7107 195.777 76.7561Z" fill="#F8A56A"/>
<path fill-rule="evenodd" clip-rule="evenodd" d="M194.239 78.7486C194.061 78.641 194.084 78.1077 194.125 77.9319C194.167 77.7577 194.198 77.5561 194.239 77.3849C194.281 77.2061 194.173 77.0364 193.938 76.9864C193.709 76.9364 193.376 77.6061 193.313 77.8486C193.199 78.2955 193.125 79.1849 193.082 79.9167C193.656 79.7107 194.147 79.4077 194.519 79.0546C194.39 78.9349 194.363 78.8243 194.239 78.7486Z" fill="#F8A56A"/>
<path fill-rule="evenodd" clip-rule="evenodd" d="M93.6437 63.241C93.9692 62.3198 94.3815 61.4394 94.8746 60.6107H80.931C80.2938 60.6107 79.7396 60.1379 79.6447 59.5122C79.5808 59.1016 79.5668 58.6728 79.6002 58.244C79.7921 55.6925 81.7779 53.6001 84.3149 53.2713C84.5624 53.241 84.8074 53.2243 85.0528 53.2243C86.2974 53.2243 87.4861 53.6364 88.4582 54.4167C88.6977 54.6091 88.9902 54.7061 89.2828 54.7061C89.5333 54.7061 89.7781 54.6364 89.9981 54.4955C90.4744 54.1894 90.7003 53.6107 90.5579 53.0607C90.2153 51.7364 90.062 50.347 90.107 48.9349C90.3465 41.2349 96.8236 34.841 104.542 34.6834C104.651 34.6834 104.757 34.6804 104.863 34.6804C111.925 34.6804 117.984 39.6455 119.337 46.5834C119.458 47.2091 120.006 47.6485 120.636 47.6485C120.669 47.6485 120.702 47.6485 120.738 47.6425C120.986 47.6228 121.214 47.6122 121.434 47.6122C124.895 47.6122 128.02 49.791 129.212 53.0319C129.34 53.3834 129.61 53.6607 129.956 53.8C130.114 53.8637 130.281 53.8955 130.451 53.8955C130.647 53.8955 130.841 53.8531 131.025 53.7637C131.768 53.4046 132.565 53.2243 133.397 53.2243C133.492 53.2243 133.586 53.2273 133.679 53.2304C135.463 53.3213 137.054 54.3228 137.989 55.7622V52.0258C136.789 51.1955 135.355 50.6804 133.81 50.6061C133.67 50.597 133.528 50.594 133.389 50.594C132.623 50.594 131.874 50.697 131.15 50.9091C129.337 47.3864 125.692 45.0743 121.674 44.9849C119.678 37.3713 112.782 32.0501 104.821 32.0501C104.712 32.0501 104.601 32.05 104.49 32.0546C95.2366 32.244 87.7625 39.6258 87.4726 48.8546C87.4504 49.5667 87.4726 50.2773 87.5365 50.9819C86.74 50.7243 85.9105 50.594 85.0581 50.594C84.7017 50.594 84.3398 50.6167 83.9778 50.6637C80.2072 51.15 77.2612 54.2531 76.9713 58.044C76.9241 58.6698 76.9464 59.2955 77.0385 59.9076C77.328 61.8091 79.0016 63.241 80.931 63.241H93.6437ZM137.516 63.241H121.68C121.521 62.7955 121.343 62.3561 121.142 61.9288H136.544C136.692 61.4637 136.787 61.0243 136.84 60.6107H137.516C137.681 60.6107 137.842 60.5804 137.989 60.5213V63.2122C137.833 63.2319 137.675 63.241 137.516 63.241Z" fill="#E3F1FB"/>
<path fill-rule="evenodd" clip-rule="evenodd" d="M132.655 55.4985C132.424 55.5546 132.198 55.6349 131.984 55.7379L128.489 57.4243L128.478 57.403L128.389 57.447L127.055 53.8106C126.181 51.4258 123.881 49.8273 121.336 49.8273C121.177 49.8243 121.013 49.8364 120.829 49.85L117.688 50.1137L117.086 47.0227C116.736 45.2318 115.986 43.5424 114.917 42.0773C115.488 47.147 114.705 51.153 112.711 54.2061L112.642 54.1803C112.037 55.1152 111.325 55.9576 110.498 56.7182C108.604 58.4621 106.137 59.7546 103.146 60.6318H89.9354V60.6106H80.9323C80.2952 60.6106 79.7409 60.1379 79.646 59.5121C79.5821 59.0985 79.5681 58.6727 79.6015 58.2439C79.7934 55.6924 81.7792 53.6 84.3188 53.2712C84.5637 53.2409 84.8087 53.2273 85.0541 53.2273C86.2987 53.2273 87.4874 53.6364 88.4595 54.4167C88.699 54.6121 88.9915 54.7061 89.2841 54.7061C89.5069 54.7061 89.7322 54.65 89.9354 54.5334V54.4955C90.3868 54.1834 90.6008 53.6182 90.4621 53.0818C90.1191 51.7652 89.9691 50.3833 90.0081 48.9788L90.1083 48.9743V48.9349C90.2031 45.9106 91.2581 43.0879 92.9761 40.7652L92.9263 40.7212C95.0509 37.8758 98.167 35.794 101.715 35.0273C102.631 34.8182 103.581 34.7046 104.544 34.6833C104.653 34.6833 104.758 34.6803 104.864 34.6803C111.926 34.6803 117.986 39.6455 119.339 46.5864C119.459 47.2091 120.007 47.6485 120.637 47.6485C120.67 47.6485 120.703 47.6485 120.74 47.6424C120.987 47.6227 121.216 47.6121 121.435 47.6121C124.897 47.6121 128.022 49.7909 129.213 53.0318C129.341 53.3833 129.612 53.6606 129.957 53.8C130.116 53.8636 130.283 53.8955 130.453 53.8955C130.528 53.8955 130.606 53.8894 130.681 53.8773C130.765 53.8561 130.845 53.8243 130.926 53.7864C131.355 53.5803 131.803 53.4303 132.262 53.3409C132.633 53.2621 133.012 53.2273 133.399 53.2273C133.494 53.2273 133.586 53.2273 133.68 53.2303C135.465 53.3212 137.055 54.3227 137.991 55.7621V55.9455C138.461 56.7273 138.745 57.6273 138.764 58.5727C138.77 58.8924 138.751 59.2121 138.706 59.5212C138.642 59.9546 138.363 60.3121 137.991 60.4985V60.5212C137.91 60.5515 137.826 60.5773 137.74 60.5909C137.637 60.6197 137.528 60.6318 137.42 60.6318H136.743C137.172 57.2909 134.822 55.5091 133.479 55.4394C133.418 55.4394 133.36 55.4394 133.304 55.4394C133.084 55.4394 132.864 55.4591 132.655 55.4985Z" fill="white"/>
<path fill-rule="evenodd" clip-rule="evenodd" d="M114.005 41.3181C114.058 40.3227 116.804 44.5227 117.15 47.0999L117.748 50.1666L120.864 49.903C121.048 49.8908 121.215 49.8833 121.371 49.8833C123.897 49.8833 126.18 51.4696 127.052 53.8378L128.375 57.4469L131.847 55.7742C132.281 55.5621 132.752 55.453 133.253 55.453C133.312 55.453 133.367 55.453 133.429 55.459C133.969 55.4848 134.674 55.7893 135.289 56.3651C136.406 57.1666 137.394 58.6954 137.093 60.9136H101.645C104.802 60.0348 107.404 58.7424 109.403 56.9969C115.863 51.359 113.844 41.0287 114.005 41.3181Z" fill="#F3FBFD"/>
<path fill-rule="evenodd" clip-rule="evenodd" d="M90.0312 54.4728C90.4822 54.1607 90.6966 53.597 90.5575 53.0622C90.2149 51.7425 90.0616 50.3622 90.1065 48.9576C90.0783 48.9576 90.0561 48.9607 90.0312 48.9607V54.4728ZM137.513 63.241H90.0312V60.6107C105.795 60.5379 121.751 60.6107 137.513 60.6107C138.153 60.6107 138.707 60.1319 138.805 59.4985C138.849 59.1895 138.869 58.8697 138.863 58.5531C138.796 55.7561 136.471 53.3713 133.678 53.2304C133.584 53.2273 133.486 53.2243 133.389 53.2243C132.562 53.2243 131.765 53.4046 131.022 53.7637C130.841 53.8531 130.646 53.8955 130.448 53.8955C130.281 53.8955 130.114 53.8637 129.955 53.8C129.61 53.6607 129.34 53.3834 129.211 53.0319C128.02 49.791 124.895 47.6122 121.434 47.6122C121.212 47.6122 120.986 47.6228 120.738 47.6425C120.702 47.6485 120.665 47.6485 120.632 47.6485C120.003 47.6485 119.457 47.2091 119.335 46.5864C117.981 39.6455 111.908 34.6804 104.866 34.6804C104.757 34.6804 104.651 34.6834 104.542 34.6834C99.8834 34.7803 95.6783 37.1455 93.0222 40.6985C92.3342 40.0985 91.4683 39.691 90.513 39.5728C93.5846 35.1167 98.6888 32.1728 104.49 32.0546C104.601 32.05 104.715 32.0501 104.829 32.0501C112.793 32.0501 119.674 37.3713 121.671 44.9849C125.689 45.0743 129.334 47.3864 131.15 50.9061C131.871 50.697 132.62 50.594 133.385 50.594C133.527 50.594 133.667 50.597 133.809 50.6031C138.022 50.8137 141.4 54.2773 141.495 58.4925C141.506 58.9622 141.475 59.4288 141.408 59.8849C141.125 61.797 139.451 63.241 137.513 63.241Z" fill="#E3F1FB"/>
<path fill-rule="evenodd" clip-rule="evenodd" d="M214.733 60.8879C215.059 59.9652 215.472 59.0879 215.964 58.2592H202.018C201.381 58.2592 200.829 57.7864 200.734 57.1607C200.671 56.7455 200.654 56.3182 200.69 55.891C200.882 53.3379 202.867 51.247 205.405 50.9198C205.652 50.8864 205.898 50.8728 206.142 50.8728C207.387 50.8728 208.577 51.2849 209.548 52.0652C209.788 52.2561 210.081 52.3546 210.372 52.3546C210.62 52.3546 210.869 52.2819 211.089 52.144C211.564 51.8364 211.79 51.2561 211.649 50.7092C211.303 49.3819 211.152 47.9955 211.196 46.5834C211.436 38.8834 217.913 32.4895 225.632 32.3319C225.741 32.3273 225.847 32.3273 225.952 32.3273C233.011 32.3273 239.073 37.2925 240.427 44.2319C240.547 44.8546 241.096 45.294 241.722 45.294C241.76 45.294 241.792 45.294 241.828 45.291C242.075 45.2713 242.305 45.2592 242.525 45.2592C245.985 45.2592 249.11 47.4395 250.302 50.6773C250.431 51.0273 250.701 51.3061 251.045 51.4455C251.205 51.5092 251.372 51.5425 251.539 51.5425C251.736 51.5425 251.93 51.4986 252.112 51.4122C252.858 51.0531 253.654 50.8728 254.488 50.8728C254.579 50.8728 254.674 50.8728 254.768 50.8773C256.552 50.9667 258.141 51.9713 259.079 53.4107V49.6713C257.878 48.8425 256.446 48.3288 254.901 48.2516C254.758 48.2455 254.618 48.2395 254.479 48.2395C253.714 48.2395 252.964 48.3455 252.24 48.5546C250.428 45.0349 246.782 42.7213 242.763 42.6304C240.764 35.0167 233.872 29.6955 225.911 29.6955C225.802 29.6955 225.691 29.6985 225.577 29.7016C216.323 29.8925 208.85 37.2713 208.562 46.5001C208.54 47.2152 208.562 47.9228 208.624 48.6243C207.83 48.3713 206.997 48.2395 206.148 48.2395C205.792 48.2395 205.43 48.2622 205.068 48.3092C201.298 48.797 198.352 51.9016 198.062 55.6925C198.013 56.3183 198.037 56.944 198.128 57.5531C198.418 59.4546 200.089 60.8879 202.018 60.8879H214.733ZM258.605 60.8879H242.769C242.611 60.441 242.432 60.0016 242.232 59.5743H257.634C257.781 59.1122 257.877 58.6728 257.93 58.2592H258.605C258.771 58.2592 258.929 58.2289 259.079 58.1667V60.8576C258.924 60.8773 258.765 60.8879 258.605 60.8879Z" fill="#E3F1FB"/>
<path fill-rule="evenodd" clip-rule="evenodd" d="M253.743 53.1469C253.51 53.1984 253.287 53.2802 253.073 53.3833L249.574 55.0727L249.567 55.0514L249.477 55.0923L248.14 51.459C247.269 49.0742 244.966 47.4727 242.424 47.4727C242.265 47.4727 242.101 47.4817 241.914 47.4939L238.774 47.759L238.171 44.6711C237.821 42.8772 237.074 41.1893 236.004 39.7227C236.576 44.7954 235.79 48.8014 233.798 51.853L233.73 51.8257C233.126 52.759 232.41 53.6045 231.586 54.3666C229.691 56.1105 227.225 57.403 224.232 58.2817H211.02V58.259H202.018C201.38 58.259 200.828 57.7863 200.731 57.1605C200.67 56.7454 200.653 56.3181 200.687 55.8908C200.881 53.3378 202.866 51.2469 205.404 50.9196C205.651 50.8863 205.897 50.8726 206.142 50.8726C207.386 50.8726 208.576 51.2848 209.548 52.0651C209.787 52.256 210.08 52.3545 210.372 52.3545C210.595 52.3545 210.819 52.2954 211.02 52.1817V52.1439C211.475 51.8287 211.689 51.2666 211.551 50.7302C211.208 49.4105 211.055 48.0287 211.096 46.6242L211.196 46.6196V46.5802C211.29 43.559 212.346 40.7348 214.064 38.4105L214.014 38.3681C216.139 35.5242 219.255 33.4424 222.804 32.6727C223.719 32.4666 224.668 32.3499 225.631 32.3317C225.741 32.3272 225.847 32.3272 225.952 32.3272C233.011 32.3272 239.073 37.2893 240.427 44.2317C240.546 44.8545 241.096 45.2939 241.721 45.2939C241.759 45.2939 241.791 45.2939 241.827 45.2908C242.075 45.2711 242.304 45.259 242.524 45.259C245.985 45.259 249.11 47.4393 250.301 50.6802C250.43 51.0272 250.7 51.306 251.045 51.4454C251.204 51.509 251.371 51.5423 251.538 51.5423C251.616 51.5423 251.691 51.5363 251.769 51.5227C251.849 51.4999 251.933 51.4696 252.012 51.4317C252.443 51.2257 252.887 51.0757 253.35 50.9893C253.718 50.912 254.1 50.8726 254.487 50.8726C254.578 50.8726 254.674 50.8757 254.768 50.8772C256.551 50.9666 258.14 51.9711 259.078 53.4105V53.5939C259.549 54.3742 259.831 55.2726 259.852 56.2211C259.859 56.5408 259.839 56.8575 259.795 57.1666C259.73 57.5999 259.452 57.9605 259.078 58.1454V58.1666C258.998 58.1999 258.915 58.2227 258.828 58.2393C258.725 58.2636 258.616 58.2817 258.506 58.2817H257.832C258.26 54.9393 255.909 53.1575 254.568 53.0878C254.507 53.0848 254.448 53.0848 254.392 53.0848C254.168 53.0848 253.953 53.1045 253.743 53.1469Z" fill="white"/>
<path fill-rule="evenodd" clip-rule="evenodd" d="M235.094 38.9666C235.147 37.9682 237.89 42.1712 238.238 44.7454L238.837 47.8121L241.951 47.5515C242.137 47.5394 242.304 47.5288 242.46 47.5288C244.986 47.5288 247.268 49.1151 248.139 51.4863L249.463 55.0954L252.933 53.4182C253.37 53.2106 253.84 53.1015 254.343 53.1015C254.4 53.1015 254.456 53.1015 254.517 53.1045C255.057 53.1318 255.762 53.4379 256.376 54.0136C257.49 54.8121 258.483 56.3409 258.182 58.5591H222.73C225.887 57.6803 228.492 56.3879 230.491 54.6454C236.95 49.0076 234.932 38.6773 235.094 38.9666Z" fill="#F3FBFD"/>
<path fill-rule="evenodd" clip-rule="evenodd" d="M211.119 52.1198C211.573 51.8092 211.785 51.2425 211.646 50.7092C211.306 49.391 211.153 48.0092 211.197 46.6061C211.169 46.6061 211.146 46.6061 211.119 46.6061V52.1198ZM258.604 60.8879H211.119V58.2592C226.886 58.1864 242.839 58.2592 258.604 58.2592C259.243 58.2592 259.799 57.7804 259.893 57.147C259.94 56.8349 259.959 56.5182 259.95 56.2016C259.887 53.4046 257.561 51.0167 254.769 50.8773C254.671 50.8758 254.574 50.8728 254.479 50.8728C253.65 50.8728 252.856 51.0531 252.113 51.4092C251.93 51.4986 251.733 51.5425 251.539 51.5425C251.372 51.5425 251.205 51.5092 251.043 51.4455C250.701 51.3061 250.431 51.0273 250.302 50.6804C249.11 47.4395 245.984 45.2591 242.522 45.2591C242.302 45.2591 242.074 45.2713 241.828 45.291C241.792 45.294 241.757 45.294 241.72 45.294C241.091 45.294 240.547 44.8546 240.424 44.2319C239.072 37.2925 232.998 32.3273 225.955 32.3273C225.848 32.3273 225.741 32.3273 225.632 32.3319C220.974 32.4258 216.768 34.794 214.112 38.344C213.422 37.744 212.559 37.3379 211.603 37.2183C214.675 32.7637 219.776 29.8198 225.577 29.7016C225.691 29.6985 225.805 29.6985 225.916 29.6985C233.883 29.6985 240.764 35.0182 242.76 42.6304C246.779 42.7198 250.425 45.0319 252.24 48.5546C252.961 48.3455 253.708 48.2395 254.476 48.2395C254.615 48.2395 254.758 48.2455 254.901 48.2516C259.114 48.4591 262.488 51.9258 262.585 56.141C262.596 56.6076 262.565 57.0773 262.499 57.5334C262.215 59.4455 260.542 60.8879 258.604 60.8879Z" fill="#E3F1FB"/>
<path fill-rule="evenodd" clip-rule="evenodd" d="M268.72 175.52C269.043 174.6 269.458 173.718 269.948 172.889H256.006C255.368 172.889 254.813 172.418 254.719 171.794C254.658 171.377 254.641 170.95 254.675 170.524C254.869 167.97 256.854 165.879 259.392 165.55C259.639 165.52 259.885 165.505 260.126 165.505C261.371 165.505 262.561 165.915 263.532 166.696C263.774 166.888 264.063 166.985 264.359 166.985C264.607 166.985 264.854 166.915 265.074 166.774C265.551 166.468 265.777 165.889 265.634 165.339C265.288 164.014 265.138 162.626 265.184 161.215C265.422 153.514 271.901 147.121 279.619 146.962C279.728 146.959 279.832 146.959 279.939 146.959C286.998 146.959 293.06 151.924 294.411 158.862C294.534 159.485 295.082 159.927 295.709 159.927C295.745 159.927 295.779 159.924 295.815 159.921C296.063 159.903 296.292 159.894 296.509 159.894C299.972 159.894 303.097 162.07 304.289 165.311C304.416 165.659 304.684 165.938 305.033 166.079C305.189 166.139 305.357 166.173 305.524 166.173C305.723 166.173 305.917 166.129 306.1 166.043C306.842 165.685 307.642 165.505 308.475 165.505C308.566 165.505 308.66 165.506 308.756 165.512C310.538 165.599 312.127 166.602 313.063 168.043V164.302C311.866 163.474 310.431 162.961 308.886 162.883C308.744 162.876 308.604 162.874 308.466 162.874C307.698 162.874 306.951 162.98 306.227 163.188C304.413 159.665 300.769 157.353 296.752 157.264C294.751 149.65 287.859 144.33 279.898 144.33C279.786 144.33 279.675 144.33 279.564 144.332C270.312 144.523 262.836 151.902 262.55 161.13C262.528 161.849 262.546 162.555 262.609 163.258C261.817 163.002 260.984 162.871 260.135 162.871C259.776 162.871 259.416 162.894 259.055 162.944C255.282 163.43 252.339 166.535 252.047 170.321C251.997 170.95 252.02 171.574 252.116 172.186C252.402 174.088 254.075 175.52 256.006 175.52H268.72ZM312.59 175.52H296.753C296.597 175.073 296.419 174.633 296.217 174.208H311.621C311.768 173.743 311.863 173.308 311.916 172.889H312.59C312.757 172.889 312.916 172.859 313.063 172.8V175.493C312.907 175.512 312.752 175.52 312.59 175.52Z" fill="#E3F1FB"/>
<path fill-rule="evenodd" clip-rule="evenodd" d="M307.73 167.78C307.496 167.833 307.271 167.911 307.056 168.014L303.56 169.705L303.551 169.682L303.46 169.724L302.128 166.091C301.255 163.705 298.953 162.103 296.41 162.103C296.251 162.103 296.084 162.115 295.9 162.129L292.759 162.389L292.157 159.305C291.807 157.512 291.06 155.821 289.99 154.353C290.559 159.429 289.776 163.432 287.786 166.485L287.717 166.461C287.111 167.391 286.395 168.236 285.572 168.995C283.678 170.741 281.208 172.033 278.217 172.912H265.008V172.889H256.004C255.367 172.889 254.811 172.418 254.717 171.791C254.656 171.377 254.64 170.952 254.673 170.524C254.867 167.97 256.853 165.879 259.39 165.55C259.638 165.52 259.884 165.505 260.125 165.505C261.37 165.505 262.559 165.915 263.531 166.695C263.772 166.888 264.062 166.985 264.358 166.985C264.58 166.985 264.803 166.93 265.008 166.812V166.774C265.46 166.462 265.672 165.898 265.533 165.362C265.19 164.044 265.04 162.662 265.082 161.259L265.179 161.25L265.182 161.215C265.276 158.189 266.333 155.365 268.049 153.044L267.998 152.998C270.126 150.156 273.239 148.074 276.787 147.304C277.705 147.101 278.651 146.981 279.618 146.962C279.727 146.958 279.83 146.958 279.938 146.958C286.997 146.958 293.059 151.924 294.41 158.862C294.533 159.485 295.081 159.927 295.708 159.927C295.744 159.927 295.777 159.924 295.814 159.921C296.061 159.903 296.29 159.894 296.509 159.894C299.971 159.894 303.096 162.07 304.288 165.311C304.415 165.659 304.685 165.938 305.031 166.079C305.188 166.139 305.356 166.173 305.523 166.173C305.599 166.173 305.676 166.168 305.752 166.155C305.836 166.135 305.919 166.101 306 166.065C306.426 165.856 306.874 165.709 307.337 165.62C307.704 165.542 308.083 165.505 308.473 165.505C308.565 165.505 308.659 165.506 308.754 165.512C310.536 165.598 312.125 166.601 313.062 168.042V168.224C313.532 169.006 313.816 169.906 313.836 170.853C313.845 171.171 313.825 171.488 313.781 171.8C313.713 172.23 313.435 172.592 313.062 172.779V172.8C312.984 172.83 312.901 172.858 312.814 172.87C312.711 172.898 312.602 172.912 312.491 172.912H311.816C312.244 169.57 309.896 167.785 308.552 167.721C308.489 167.717 308.434 167.717 308.375 167.717C308.155 167.717 307.938 167.735 307.73 167.78Z" fill="white"/>
<path fill-rule="evenodd" clip-rule="evenodd" d="M289.081 153.597C289.134 152.599 291.876 156.805 292.225 159.376L292.823 162.444L295.941 162.182C296.123 162.171 296.291 162.159 296.446 162.159C298.972 162.159 301.256 163.749 302.124 166.117L303.449 169.726L306.92 168.05C307.354 167.841 307.828 167.733 308.329 167.733C308.385 167.733 308.444 167.733 308.505 167.735C309.042 167.764 309.746 168.068 310.364 168.644C311.478 169.442 312.469 170.974 312.169 173.189H276.717C279.875 172.312 282.475 171.018 284.479 169.276C290.938 163.638 288.92 153.311 289.081 153.597Z" fill="#F3FBFD"/>
<path fill-rule="evenodd" clip-rule="evenodd" d="M265.105 166.752C265.558 166.441 265.77 165.876 265.631 165.339C265.288 164.021 265.137 162.641 265.18 161.236C265.156 161.236 265.13 161.236 265.105 161.239V166.752ZM312.589 175.52H265.105V172.889C280.872 172.818 296.825 172.889 312.589 172.889C313.229 172.889 313.783 172.411 313.879 171.777C313.921 171.468 313.941 171.15 313.938 170.829C313.873 168.036 311.548 165.649 308.755 165.512C308.656 165.506 308.561 165.5 308.465 165.5C307.635 165.5 306.838 165.685 306.094 166.043C305.914 166.129 305.719 166.173 305.524 166.173C305.355 166.173 305.188 166.139 305.029 166.079C304.683 165.938 304.416 165.659 304.288 165.311C303.097 162.07 299.969 159.891 296.508 159.891C296.288 159.891 296.059 159.903 295.814 159.921C295.778 159.924 295.742 159.927 295.705 159.927C295.077 159.927 294.533 159.485 294.411 158.862C293.057 151.924 286.984 146.959 279.939 146.959C279.834 146.959 279.728 146.959 279.618 146.962C274.96 147.056 270.756 149.425 268.099 152.977C267.411 152.374 266.544 151.971 265.59 151.852C268.66 147.396 273.763 144.451 279.564 144.332C279.675 144.33 279.791 144.33 279.902 144.33C287.87 144.33 294.751 149.652 296.748 157.264C300.765 157.353 304.41 159.665 306.226 163.188C306.947 162.98 307.694 162.871 308.462 162.871C308.602 162.871 308.743 162.876 308.885 162.883C313.099 163.094 316.473 166.556 316.568 170.771C316.582 171.238 316.552 171.708 316.485 172.167C316.198 174.079 314.526 175.52 312.589 175.52Z" fill="#E3F1FB"/>
<path fill-rule="evenodd" clip-rule="evenodd" d="M76.1257 125.14C76.4487 124.217 76.8636 123.339 77.3536 122.51H63.411C62.7733 122.51 62.219 122.037 62.1247 121.412C62.0629 120.998 62.0467 120.57 62.0798 120.142C62.2748 117.587 64.2575 115.499 66.7969 115.168C67.0423 115.137 67.2873 115.121 67.5322 115.121C68.7768 115.121 69.9661 115.532 70.9381 116.313C71.1776 116.508 71.4698 116.603 71.7624 116.603C72.0125 116.603 72.2608 116.533 72.4782 116.391C72.957 116.086 73.1792 115.507 73.0372 114.96C72.6948 113.634 72.5447 112.247 72.5864 110.832C72.826 103.134 79.3057 96.7378 87.022 96.5818C87.1309 96.5788 87.2365 96.5772 87.3449 96.5772C94.4043 96.5772 100.464 101.541 101.817 108.48C101.94 109.103 102.488 109.545 103.114 109.545C103.148 109.545 103.184 109.545 103.218 109.539C103.469 109.52 103.697 109.511 103.914 109.511C107.378 109.511 110.503 111.688 111.692 114.929C111.819 115.279 112.09 115.557 112.438 115.697C112.594 115.761 112.761 115.794 112.931 115.794C113.125 115.794 113.324 115.749 113.505 115.66C114.248 115.302 115.045 115.121 115.88 115.121C115.972 115.121 116.066 115.124 116.159 115.129C117.943 115.219 119.533 116.222 120.469 117.659V113.92C119.269 113.094 117.837 112.577 116.292 112.502C116.15 112.494 116.011 112.491 115.869 112.491C115.103 112.491 114.354 112.597 113.632 112.805C111.817 109.283 108.172 106.97 104.154 106.881C102.156 99.2674 95.2647 93.9469 87.3005 93.9469C87.192 93.9469 87.0805 93.9484 86.9694 93.9484C77.7158 94.1409 70.2413 101.522 69.9547 110.751C69.9326 111.466 69.952 112.174 70.0159 112.875C69.2227 112.622 68.3899 112.491 67.5377 112.491C67.181 112.491 66.8224 112.513 66.4572 112.561C62.6872 113.047 59.7406 116.152 59.4541 119.944C59.4037 120.57 59.426 121.195 59.518 121.807C59.8078 123.705 61.481 125.14 63.411 125.14H76.1257ZM119.996 125.14H104.159C104 124.69 103.822 124.253 103.624 123.825H119.026C119.171 123.363 119.266 122.924 119.322 122.51H119.996C120.163 122.51 120.321 122.476 120.469 122.418V125.11C120.313 125.129 120.157 125.14 119.996 125.14Z" fill="#E3F1FB"/>
<path fill-rule="evenodd" clip-rule="evenodd" d="M115.133 117.398C114.902 117.45 114.679 117.531 114.462 117.634L110.967 119.321L110.959 119.299L110.866 119.343L109.533 115.71C108.658 113.322 106.358 111.724 103.816 111.724C103.657 111.724 103.49 111.732 103.307 111.746L100.165 112.01L99.5639 108.922C99.2127 107.129 98.4638 105.439 97.3944 103.971C97.9654 109.047 97.183 113.053 95.189 116.102L95.1196 116.077C94.5151 117.011 93.802 117.856 92.9783 118.615C91.082 120.361 88.6144 121.654 85.6235 122.529H72.4132V122.51H63.4105C62.7728 122.51 62.2185 122.037 62.1242 121.412C62.0624 120.997 62.0462 120.57 62.0793 120.142C62.2743 117.59 64.257 115.499 66.7964 115.168C67.0418 115.137 67.2868 115.121 67.5317 115.121C68.7763 115.121 69.9656 115.532 70.9376 116.313C71.1771 116.508 71.4693 116.603 71.7645 116.603C71.9871 116.603 72.2099 116.547 72.4132 116.433V116.391C72.8644 116.08 73.079 115.516 72.9398 114.982C72.5968 113.662 72.4467 112.28 72.4856 110.876L72.5859 110.871V110.832C72.6806 107.807 73.7389 104.982 75.4545 102.661L75.4041 102.617C77.5285 99.7737 80.6446 97.6938 84.1926 96.9241C85.1087 96.7181 86.0581 96.5984 87.0215 96.5817C87.1304 96.5787 87.236 96.5772 87.3444 96.5772C94.4038 96.5772 100.463 101.541 101.817 108.48C101.939 109.102 102.485 109.544 103.114 109.544C103.148 109.544 103.184 109.544 103.217 109.539C103.468 109.52 103.696 109.511 103.914 109.511C107.378 109.511 110.502 111.687 111.691 114.929C111.819 115.279 112.089 115.557 112.437 115.697C112.593 115.761 112.761 115.794 112.93 115.794C113.008 115.794 113.084 115.785 113.158 115.774C113.242 115.752 113.323 115.722 113.403 115.683C113.832 115.474 114.281 115.327 114.741 115.24C115.111 115.163 115.489 115.121 115.88 115.121C115.971 115.121 116.063 115.124 116.158 115.129C117.943 115.219 119.533 116.222 120.468 117.659V117.842C120.939 118.624 121.223 119.524 121.243 120.472C121.251 120.789 121.232 121.109 121.184 121.417C121.12 121.851 120.842 122.21 120.468 122.396V122.418C120.388 122.451 120.307 122.474 120.217 122.49C120.118 122.519 120.006 122.529 119.898 122.529H119.22C119.649 119.191 117.302 117.406 115.957 117.339C115.896 117.333 115.84 117.333 115.782 117.333C115.562 117.333 115.344 117.356 115.133 117.398Z" fill="white"/>
<path fill-rule="evenodd" clip-rule="evenodd" d="M96.4872 103.215C96.5375 102.22 99.283 106.422 99.6315 108.997L100.227 112.063L103.346 111.802C103.53 111.79 103.697 111.779 103.852 111.779C106.375 111.779 108.662 113.366 109.531 115.736L110.853 119.343L114.326 117.67C114.761 117.462 115.233 117.351 115.732 117.351C115.791 117.351 115.846 117.351 115.908 117.356C116.448 117.384 117.152 117.687 117.77 118.262C118.884 119.063 119.875 120.592 119.575 122.807H84.123C87.2809 121.932 89.8818 120.639 91.881 118.893C98.3419 113.256 96.323 102.928 96.4872 103.215Z" fill="#F3FBFD"/>
<path fill-rule="evenodd" clip-rule="evenodd" d="M72.5117 116.372C72.9658 116.061 73.1776 115.496 73.0378 114.96C72.6954 113.639 72.5453 112.261 72.587 110.854C72.5621 110.854 72.5371 110.854 72.5117 110.857V116.372ZM119.996 125.14H72.5117V122.51C88.2759 122.435 104.232 122.51 119.996 122.51C120.637 122.51 121.191 122.032 121.285 121.395C121.33 121.086 121.349 120.77 121.344 120.45C121.279 117.654 118.955 115.268 116.159 115.129C116.064 115.124 115.967 115.121 115.872 115.121C115.042 115.121 114.245 115.302 113.502 115.66C113.321 115.749 113.126 115.794 112.929 115.794C112.762 115.794 112.594 115.761 112.436 115.697C112.091 115.557 111.82 115.279 111.692 114.929C110.5 111.688 107.376 109.509 103.915 109.509C103.695 109.509 103.466 109.52 103.219 109.539C103.185 109.545 103.146 109.545 103.113 109.545C102.483 109.545 101.94 109.103 101.815 108.48C100.464 101.544 94.3882 96.5772 87.3455 96.5772C87.2397 96.5772 87.1315 96.5788 87.0226 96.5818C82.3639 96.6757 78.1592 99.0424 75.5054 102.595C74.8151 101.995 73.9486 101.589 72.9966 101.469C76.0677 97.0136 81.1697 94.0697 86.97 93.953C87.0811 93.9484 87.1954 93.9469 87.3097 93.9469C95.2769 93.9469 102.155 99.2701 104.151 106.881C108.172 106.97 111.817 109.283 113.63 112.805C114.351 112.597 115.1 112.491 115.867 112.491C116.008 112.491 116.148 112.494 116.29 112.502C120.506 112.711 123.881 116.175 123.976 120.392C123.987 120.859 123.956 121.329 123.892 121.784C123.605 123.697 121.932 125.14 119.996 125.14Z" fill="#E3F1FB"/>
<path fill-rule="evenodd" clip-rule="evenodd" d="M202.065 112.722C202.236 112.233 202.458 111.766 202.719 111.324H195.302C194.962 111.324 194.669 111.074 194.616 110.74C194.585 110.52 194.575 110.292 194.591 110.065C194.698 108.708 195.752 107.593 197.1 107.418C197.234 107.404 197.361 107.396 197.493 107.396C198.157 107.396 198.788 107.613 199.306 108.03C199.433 108.13 199.586 108.183 199.746 108.183C199.878 108.183 200.007 108.146 200.124 108.071C200.377 107.907 200.497 107.602 200.423 107.307C200.239 106.603 200.162 105.867 200.183 105.114C200.31 101.019 203.756 97.6168 207.863 97.5334C207.919 97.5334 207.974 97.5304 208.03 97.5304C211.786 97.5304 215.011 100.171 215.732 103.863C215.796 104.194 216.086 104.427 216.42 104.427C216.44 104.427 216.456 104.427 216.476 104.427C216.61 104.416 216.73 104.41 216.846 104.41C218.687 104.41 220.349 105.567 220.985 107.293C221.051 107.48 221.196 107.627 221.378 107.701C221.463 107.735 221.553 107.752 221.641 107.752C221.747 107.752 221.851 107.727 221.948 107.682C222.344 107.49 222.766 107.396 223.209 107.396C223.259 107.396 223.309 107.396 223.361 107.398C224.309 107.446 225.153 107.979 225.651 108.744V106.757C225.014 106.318 224.252 106.042 223.429 106.001C223.353 105.998 223.279 105.995 223.204 105.995C222.796 105.995 222.398 106.05 222.014 106.162C221.051 104.288 219.109 103.059 216.972 103.012C215.911 98.9615 212.246 96.1319 208.011 96.1319C207.949 96.1319 207.89 96.1319 207.832 96.135C202.909 96.235 198.935 100.16 198.779 105.069C198.77 105.45 198.779 105.828 198.812 106.201C198.392 106.065 197.949 105.995 197.498 105.995C197.307 105.995 197.114 106.006 196.923 106.034C194.918 106.292 193.348 107.944 193.197 109.959C193.168 110.292 193.181 110.623 193.231 110.949C193.386 111.96 194.273 112.722 195.302 112.722H202.065ZM225.401 112.722H216.977C216.89 112.486 216.796 112.252 216.69 112.024H224.883C224.96 111.777 225.014 111.544 225.042 111.324H225.401C225.49 111.324 225.572 111.307 225.651 111.277V112.708C225.571 112.716 225.484 112.722 225.401 112.722Z" fill="#E3F1FB"/>
<path fill-rule="evenodd" clip-rule="evenodd" d="M222.815 108.605C222.692 108.633 222.572 108.677 222.458 108.73L220.597 109.628L220.596 109.617L220.546 109.639L219.837 107.707C219.369 106.44 218.148 105.589 216.794 105.589C216.71 105.586 216.621 105.592 216.524 105.6L214.853 105.739L214.532 104.096C214.347 103.142 213.948 102.244 213.38 101.463C213.684 104.163 213.265 106.292 212.206 107.915L212.168 107.905C211.847 108.399 211.466 108.85 211.029 109.252C210.021 110.181 208.71 110.868 207.118 111.335H200.089V111.324H195.302C194.962 111.324 194.668 111.074 194.616 110.74C194.586 110.52 194.575 110.292 194.592 110.064C194.698 108.708 195.753 107.593 197.101 107.418C197.234 107.404 197.362 107.396 197.494 107.396C198.157 107.396 198.789 107.612 199.306 108.027C199.434 108.129 199.587 108.183 199.746 108.183C199.863 108.183 199.983 108.152 200.089 108.094V108.068C200.331 107.904 200.446 107.604 200.37 107.318C200.188 106.617 200.109 105.884 200.13 105.136L200.18 105.133L200.183 105.113C200.233 103.504 200.797 102.003 201.709 100.768L201.681 100.744C202.812 99.2312 204.47 98.1242 206.356 97.7136C206.845 97.6045 207.349 97.5439 207.863 97.5333C207.919 97.5333 207.974 97.5303 208.03 97.5303C211.787 97.5303 215.012 100.171 215.733 103.863C215.797 104.193 216.087 104.426 216.42 104.426C216.44 104.426 216.457 104.426 216.477 104.426C216.61 104.416 216.73 104.41 216.847 104.41C218.688 104.41 220.35 105.567 220.986 107.293C221.051 107.479 221.197 107.626 221.379 107.701C221.464 107.735 221.554 107.751 221.642 107.751C221.684 107.751 221.725 107.749 221.764 107.74C221.808 107.729 221.851 107.713 221.892 107.694C222.121 107.582 222.361 107.504 222.605 107.457C222.804 107.416 223.004 107.396 223.209 107.396C223.259 107.396 223.31 107.396 223.361 107.398C224.31 107.446 225.154 107.979 225.651 108.747V108.841C225.903 109.258 226.052 109.736 226.064 110.24C226.066 110.409 226.058 110.579 226.032 110.743C226.001 110.974 225.853 111.165 225.651 111.262V111.276C225.611 111.293 225.566 111.305 225.518 111.312C225.465 111.326 225.407 111.335 225.348 111.335H224.99C225.214 109.559 223.967 108.611 223.255 108.574C223.22 108.572 223.191 108.572 223.159 108.572C223.042 108.572 222.929 108.583 222.815 108.605Z" fill="white"/>
<path fill-rule="evenodd" clip-rule="evenodd" d="M212.895 101.061C212.923 100.532 214.381 102.767 214.568 104.138L214.885 105.767L216.542 105.628C216.64 105.622 216.729 105.617 216.813 105.617C218.154 105.617 219.372 106.462 219.833 107.721L220.536 109.639L222.383 108.749C222.617 108.638 222.867 108.58 223.134 108.58C223.165 108.58 223.193 108.58 223.225 108.583C223.512 108.597 223.888 108.761 224.216 109.066C224.81 109.489 225.333 110.303 225.176 111.482H206.32C207.996 111.015 209.383 110.329 210.447 109.403C213.883 106.403 212.809 100.911 212.895 101.061Z" fill="#F3FBFD"/>
<path fill-rule="evenodd" clip-rule="evenodd" d="M200.143 108.057C200.384 107.894 200.495 107.593 200.423 107.307C200.241 106.606 200.162 105.873 200.181 105.124C200.17 105.124 200.155 105.128 200.143 105.128V108.057ZM225.401 112.722H200.143V111.324C208.527 111.285 217.014 111.324 225.401 111.324C225.741 111.324 226.036 111.071 226.086 110.731C226.109 110.568 226.119 110.398 226.118 110.228C226.084 108.741 224.844 107.474 223.361 107.398C223.308 107.396 223.257 107.393 223.207 107.393C222.765 107.393 222.341 107.49 221.945 107.68C221.851 107.727 221.745 107.752 221.642 107.752C221.554 107.752 221.464 107.735 221.378 107.701C221.197 107.627 221.051 107.48 220.986 107.293C220.35 105.567 218.688 104.41 216.847 104.41C216.73 104.41 216.607 104.416 216.477 104.427C216.457 104.427 216.437 104.427 216.421 104.427C216.084 104.427 215.795 104.194 215.73 103.863C215.009 100.171 211.778 97.5304 208.033 97.5304C207.979 97.5304 207.92 97.5334 207.863 97.5334C205.383 97.5834 203.146 98.8424 201.732 100.732C201.366 100.413 200.908 100.196 200.401 100.132C202.035 97.7607 204.747 96.1986 207.833 96.135C207.891 96.1319 207.953 96.1319 208.014 96.1319C212.253 96.1319 215.912 98.9615 216.973 103.012C219.11 103.059 221.051 104.288 222.015 106.162C222.399 106.05 222.795 105.995 223.205 105.995C223.279 105.995 223.354 105.998 223.43 106.001C225.671 106.111 227.468 107.955 227.519 110.198C227.523 110.448 227.509 110.696 227.47 110.938C227.32 111.955 226.429 112.722 225.401 112.722Z" fill="#E3F1FB"/>
</g>
<defs>
<clipPath id="clip0_171_17744">
<rect width="375.648" height="250" fill="white" transform="translate(0.175781)"/>
</clipPath>
</defs>
</svg>
