<svg width="284" height="302" viewBox="0 0 284 302" fill="none" xmlns="http://www.w3.org/2000/svg">
<g clip-path="url(#clip0_461_18038)">
<path fill-rule="evenodd" clip-rule="evenodd" d="M242.464 264.598C242.464 264.598 277.391 197.943 253.562 176.483C229.653 155.024 219.615 171.85 224.92 121.127C230.224 70.4041 249.074 66.0959 160.372 78.5328C71.7504 90.8884 41.5572 97.7165 64.4062 149.252C87.2551 200.707 72.7297 188.026 62.0397 215.013C51.4312 241.919 67.0991 269.394 128.301 265.086C189.504 260.778 242.464 264.598 242.464 264.598Z" fill="#B1EAFD"/>
<path fill-rule="evenodd" clip-rule="evenodd" d="M104.065 209.323C104.065 209.323 86.2758 178.434 44.9846 167.704C-39.5564 145.676 12.8329 74.2245 58.1227 113.08C74.7698 127.305 92.7225 155.186 104.065 209.323Z" fill="#F2AB3A"/>
<path d="M19.1163 124.948C11.772 135.271 23.3596 140.717 28.2558 135.84C31.2752 132.832 30.4591 126.817 25.8077 126.004C24.1757 125.76 22.7884 126.167 21.8908 126.98C20.0955 128.362 19.6875 130.8 20.5851 132.345C21.646 134.052 23.7677 134.458 25.3181 133.726C28.011 132.507 26.6238 127.142 23.278 129.987" stroke="white" stroke-width="6.88408" stroke-miterlimit="22.9256" stroke-linecap="round" stroke-linejoin="round"/>
<path d="M27.0318 109.259C19.6875 119.664 31.1936 125.11 36.0898 120.233C39.1907 117.225 38.3747 111.21 33.6417 110.397C32.0096 110.153 30.704 110.56 29.7247 111.373C28.011 112.754 27.5214 115.193 28.5007 116.738C29.4799 118.445 31.6832 118.851 33.2337 118.119C35.9266 116.9 34.4577 111.535 31.1936 114.38" stroke="white" stroke-width="6.88408" stroke-miterlimit="22.9256" stroke-linecap="round" stroke-linejoin="round"/>
<path fill-rule="evenodd" clip-rule="evenodd" d="M40.4964 135.515L45.5558 125.354C45.5558 125.354 39.5988 123.647 37.3139 127.711C35.029 131.694 40.4964 135.515 40.4964 135.515Z" fill="#FF0000"/>
<path fill-rule="evenodd" clip-rule="evenodd" d="M111.981 175.183C111.981 175.183 105.942 129.418 61.795 96.172C-28.6214 28.1349 69.7105 -31.7735 104.718 37.1577C117.53 62.4379 125.282 104.707 111.981 175.183Z" fill="#FF0000"/>
<path fill-rule="evenodd" clip-rule="evenodd" d="M44.4951 43.9046L64.4063 39.9215C64.4063 39.9215 66.7728 50.814 57.9597 52.8461C49.0649 54.8783 45.6376 45.9367 44.4951 43.9046Z" fill="white"/>
<path fill-rule="evenodd" clip-rule="evenodd" d="M75.7491 20.0062L66.3647 37.8893C66.3647 37.8893 76.0755 43.2543 80.5637 35.3694C85.0519 27.4846 77.4628 21.632 75.7491 20.0062Z" fill="white"/>
<path fill-rule="evenodd" clip-rule="evenodd" d="M53.3899 56.9105C68.4049 57.5608 81.2982 51.1391 84.8887 33.3373L91.2538 48.1315L84.9703 46.3432L88.4793 54.797L79.0949 52.8461L82.7671 61.5438L72.3218 57.5608L73.9539 65.283L66.12 59.4304L66.2832 66.5023L53.3899 56.9105Z" fill="white"/>
<path fill-rule="evenodd" clip-rule="evenodd" d="M187.709 170.793C187.709 170.793 192.85 131.776 230.469 103.406C307.502 45.449 223.696 -5.5992 193.91 53.0899C182.976 74.7122 176.366 110.641 187.709 170.793Z" fill="#5D9EB6"/>
<path fill-rule="evenodd" clip-rule="evenodd" d="M215.372 44.3109C215.372 44.3109 223.614 49.6758 227.123 56.1788C233.488 47.6436 227.368 36.0196 215.372 44.3109Z" fill="white"/>
<path fill-rule="evenodd" clip-rule="evenodd" d="M243.852 68.2905C243.852 68.2905 237.242 60.9747 230.305 58.5361C237.813 50.8952 250.217 55.2034 243.852 68.2905Z" fill="white"/>
<path d="M221.737 70.0789C224.847 70.0789 227.368 67.5678 227.368 64.4701C227.368 61.3725 224.847 58.8613 221.737 58.8613C218.627 58.8613 216.106 61.3725 216.106 64.4701C216.106 67.5678 218.627 70.0789 221.737 70.0789Z" fill="#387991"/>
<path fill-rule="evenodd" clip-rule="evenodd" d="M222.635 58.8613L220.023 63.1695L224.675 61.4625L222.227 65.6081L227.368 63.9824C227.205 61.3812 225.164 59.2678 222.635 58.8613Z" fill="white"/>
<path fill-rule="evenodd" clip-rule="evenodd" d="M178.977 217.371C178.977 217.371 196.767 186.482 238.058 175.752C322.599 153.723 270.209 82.272 224.92 121.127C208.273 135.434 190.32 163.234 178.977 217.371Z" fill="#BCD675"/>
<path fill-rule="evenodd" clip-rule="evenodd" d="M248.34 117.144C247.197 120.721 247.932 126.004 251.849 127.305C245.484 128.443 242.546 120.233 248.34 117.144Z" fill="white"/>
<path fill-rule="evenodd" clip-rule="evenodd" d="M255.521 132.751C254.297 136.328 255.113 141.611 259.03 142.912C252.665 144.05 249.727 135.84 255.521 132.751Z" fill="white"/>
<path d="M240.016 144.05C245.484 139.335 244.015 132.832 235.61 133.239C247.605 126.817 249.482 143.644 240.016 144.05Z" fill="#9EB952"/>
<path d="M149.273 301.99C184.517 301.99 213.087 296.095 213.087 288.822C213.087 281.549 184.517 275.653 149.273 275.653C114.03 275.653 85.4597 281.549 85.4597 288.822C85.4597 296.095 114.03 301.99 149.273 301.99Z" fill="#CBEEF9"/>
<path d="M156.454 283.213C226.31 283.213 282.939 277.317 282.939 270.045C282.939 262.772 226.31 256.876 156.454 256.876C86.5988 256.876 29.9695 262.772 29.9695 270.045C29.9695 277.317 86.5988 283.213 156.454 283.213Z" fill="#CBEEF9"/>
<path fill-rule="evenodd" clip-rule="evenodd" d="M114.755 126.817C106.105 129.174 90.1928 114.868 113.123 58.6174C116.306 50.8952 107.166 -9.50097 159.148 5.69967C187.219 -0.315557 192.034 33.4185 192.278 59.349C192.605 88.3684 224.104 135.271 175.387 121.046C165.349 118.119 159.066 121.371 152.864 122.509C140.624 124.785 123.405 124.46 114.755 126.817Z" fill="#454A84"/>
<path fill-rule="evenodd" clip-rule="evenodd" d="M145.438 89.9128H151.314H157.189L159.719 102.756H151.314H142.99L145.438 89.9128Z" fill="#FAC0C0"/>
<path fill-rule="evenodd" clip-rule="evenodd" d="M144.622 94.3023C149.029 95.1152 153.598 95.0339 158.005 94.1398L157.189 89.9128H151.314H145.438L144.622 94.3023Z" fill="#FF99AC"/>
<path fill-rule="evenodd" clip-rule="evenodd" d="M118.917 45.6928C101.862 31.9553 98.4348 61.7876 116.795 60.8935C123.079 100.561 176.692 102.512 185.75 60.8935C204.356 60.2432 200.112 35.4507 185.832 44.1484C181.67 46.6683 182.976 48.6192 182.813 54.9595C181.425 38.2957 163.636 40.5718 153.027 45.1238C146.336 47.156 138.094 38.0519 130.913 40.084C124.629 42.7665 120.876 47.8063 118.428 54.0654L118.917 45.6928Z" fill="#FAC0C0"/>
<path d="M130.505 63.332C130.505 63.332 135.646 67.9654 142.582 63.332" stroke="#542A6F" stroke-width="5.08824" stroke-miterlimit="22.9256" stroke-linecap="round" stroke-linejoin="round"/>
<path d="M158.495 63.332C158.495 63.332 163.636 67.9654 170.654 63.332" stroke="#542A6F" stroke-width="5.08824" stroke-miterlimit="22.9256" stroke-linecap="round" stroke-linejoin="round"/>
<path d="M144.948 82.7596C144.948 82.7596 150.089 78.1262 157.026 82.7596" stroke="#542A6F" stroke-width="6.88408" stroke-miterlimit="22.9256" stroke-linecap="round" stroke-linejoin="round"/>
<path d="M152.538 67.8842C152.538 67.8842 152.619 71.1356 150.661 71.3795C148.702 71.6233 149.11 74.3871 151.966 74.2245" stroke="#542A6F" stroke-width="3.891" stroke-miterlimit="22.9256" stroke-linecap="round" stroke-linejoin="round"/>
<path d="M187.627 47.4811C187.627 47.4811 194.237 46.6682 192.85 54.4717" stroke="#454A84" stroke-width="3.891" stroke-miterlimit="22.9256" stroke-linecap="round" stroke-linejoin="round"/>
<path d="M192.278 49.432C192.278 49.432 189.749 49.432 189.177 53.9841" stroke="#454A84" stroke-width="3.891" stroke-miterlimit="22.9256" stroke-linecap="round" stroke-linejoin="round"/>
<path d="M114.674 47.4811C114.674 47.4811 108.146 46.6682 109.533 54.4717" stroke="#454A84" stroke-width="3.891" stroke-miterlimit="22.9256" stroke-linecap="round" stroke-linejoin="round"/>
<path d="M110.104 49.432C110.104 49.432 112.634 49.432 113.205 53.9841" stroke="#454A84" stroke-width="3.891" stroke-miterlimit="22.9256" stroke-linecap="round" stroke-linejoin="round"/>
<path fill-rule="evenodd" clip-rule="evenodd" d="M182.812 54.9596C182.812 54.9596 170.654 59.2678 158.413 43.2542C158.413 43.2542 150.498 63.2508 117.448 58.1297C117.448 58.1297 120.631 43.173 123.079 39.0273C125.609 34.8817 154.333 37.5642 166.492 37.5642C178.651 37.5642 181.18 33.6624 182.812 54.9596Z" fill="#454A84"/>
<path fill-rule="evenodd" clip-rule="evenodd" d="M151.395 101.293H138.42C133.524 102.025 135.564 104.219 134.177 105.764C119.978 109.584 112.96 115.681 101.699 124.541L106.677 199.569L151.395 217.452L191.054 196.561L201.01 124.541C189.83 115.681 182.812 109.584 168.613 105.764C167.226 104.219 169.185 102.025 164.37 101.293H151.395Z" fill="#2A9EF4"/>
<path fill-rule="evenodd" clip-rule="evenodd" d="M96.1499 148.521C96.1499 148.521 99.1692 210.705 102.841 242.57C102.841 242.57 161.024 232.815 185.995 235.579C210.884 238.261 215.862 233.465 215.862 233.465C213.74 193.066 203.785 130.963 178.896 114.705C159.148 101.781 118.591 133.401 96.1499 148.521Z" fill="#2A9EF4"/>
<path fill-rule="evenodd" clip-rule="evenodd" d="M114.919 75.8502C114.674 70.0789 114.755 65.4455 115.327 62.6818C115.408 62.1128 115.571 61.625 115.735 61.2999C116.877 58.3736 117.448 61.2186 117.611 62.6005C117.775 63.7385 117.856 64.9578 117.775 66.2584C118.101 63.7385 118.509 61.5438 119.08 60.0806C120.06 57.5607 121.528 57.073 122.263 59.9993C122.671 61.7063 122.834 64.3075 122.752 67.2338C123.161 63.5759 125.119 63.0882 126.017 66.9087C127.241 72.3549 128.546 83.7351 128.546 91.2947C126.996 104.788 123.569 170.143 97.7819 162.258C73.6273 154.942 103.657 107.715 111.328 93.1643C113.776 88.4497 114.755 81.1339 114.919 75.8502Z" fill="#FAC0C0"/>
<path d="M114.918 75.8502C114.674 70.0789 114.755 65.4455 115.326 62.6818C115.408 62.1128 115.571 61.625 115.734 61.2999C116.877 58.3736 117.448 61.2186 117.611 62.6005C117.775 63.7385 117.856 69.1847 117.856 70.4853C117.856 66.8274 118.509 61.5438 119.08 60.0806C120.059 57.5607 121.528 57.073 122.263 59.9993C122.671 61.7063 122.916 67.0713 122.916 69.9976C123.242 63.1695 125.282 63.1695 126.016 66.9087C126.669 70.6479 127.649 76.907 128.138 82.9222" stroke="black" stroke-width="3.891" stroke-miterlimit="22.9256" stroke-linecap="round" stroke-linejoin="round"/>
<path fill-rule="evenodd" clip-rule="evenodd" d="M182.894 75.8502C183.139 70.0789 183.057 65.4455 182.486 62.6818C182.404 62.1128 182.241 61.625 182.078 61.2999C181.017 58.3736 180.446 61.2186 180.201 62.6005C180.038 63.7385 179.956 64.9578 180.038 66.2584C179.712 63.7385 179.304 61.5438 178.732 60.0806C177.835 57.5607 176.284 57.073 175.55 59.9993C175.142 61.7063 175.06 64.3075 175.06 67.2338C174.652 63.5759 172.694 63.0882 171.878 66.9087C170.654 72.3549 169.266 83.7351 169.266 91.2947C170.817 104.788 174.326 170.143 200.031 162.258C224.185 154.942 194.155 107.715 186.485 93.1643C184.037 88.4497 183.057 81.1339 182.894 75.8502Z" fill="#FAC0C0"/>
<path d="M182.894 75.8502C183.139 70.0789 183.057 65.4455 182.486 62.6818C182.404 62.1128 182.241 61.625 182.078 61.2999C181.017 58.3736 180.446 61.2186 180.201 62.6005C180.038 63.7385 179.956 69.1847 180.038 70.4853C180.038 66.8274 179.303 61.5438 178.732 60.0806C177.835 57.5607 176.284 57.073 175.55 59.9993C175.142 61.7063 174.897 67.0713 174.897 69.9976C174.57 63.1695 172.612 63.1695 171.878 66.9087C171.143 70.6479 169.919 79.8333 169.429 85.9298" stroke="black" stroke-width="3.891" stroke-miterlimit="22.9256" stroke-linecap="round" stroke-linejoin="round"/>
<path d="M243.362 252.893H69.6288C54.576 252.893 42.3733 255.259 42.3733 258.177V265.493C42.3733 268.411 54.576 270.776 69.6288 270.776H243.362C258.415 270.776 270.617 268.411 270.617 265.493V258.177C270.617 255.259 258.415 252.893 243.362 252.893Z" fill="#454A84"/>
<path fill-rule="evenodd" clip-rule="evenodd" d="M46.5351 255.819H266.374C268.741 255.819 270.617 258.177 270.617 261.022V265.493C270.617 268.419 268.741 270.776 266.374 270.776H46.5351C44.2502 270.776 42.3733 268.419 42.3733 265.493V261.022C42.3733 258.177 44.2502 255.819 46.5351 255.819Z" fill="#542A6F"/>
<path fill-rule="evenodd" clip-rule="evenodd" d="M116.632 260.615L118.999 271.914C118.999 271.914 122.753 271.508 127.894 271.752C132.953 271.914 140.052 272.239 140.052 272.239L139.318 260.778C139.318 260.778 118.428 254.519 116.632 260.615Z" fill="#FAC0C0"/>
<path fill-rule="evenodd" clip-rule="evenodd" d="M172.122 260.615L174.57 271.914C174.57 271.914 178.324 271.508 183.384 271.752C188.443 271.914 195.542 272.239 195.542 272.239L194.89 260.778C194.89 260.778 173.999 254.519 172.122 260.615Z" fill="#FAC0C0"/>
<path fill-rule="evenodd" clip-rule="evenodd" d="M116.469 271.589C89.8663 274.353 100.312 291.26 104.636 291.26C107.656 291.26 143.48 290.854 143.48 290.854L140.216 271.914C133.116 271.752 123.324 270.857 116.469 271.589Z" fill="#542A6F"/>
<path fill-rule="evenodd" clip-rule="evenodd" d="M125.119 271.345C135.891 276.222 134.422 286.058 131.402 291.017C120.712 291.098 106.513 291.26 104.636 291.26C100.312 291.26 89.8663 274.353 116.469 271.589C119.08 271.345 122.018 271.264 125.119 271.345Z" fill="#454A84"/>
<path fill-rule="evenodd" clip-rule="evenodd" d="M149.6 170.224C147.886 163.965 145.928 158.682 143.153 154.455C117.448 115.518 92.7225 140.067 95.3339 179.491C96.9659 203.389 103.576 235.66 109.043 260.615L149.274 260.859L147.886 253.625L161.84 253.462C156.781 229.726 151.15 201.195 149.763 179.491C149.518 176.321 149.518 173.232 149.6 170.224Z" fill="#4646BB"/>
<path d="M147.886 253.625C147.886 253.625 139.726 213.631 136.462 180.873" stroke="black" stroke-width="3.891" stroke-miterlimit="22.9256" stroke-linecap="round"/>
<path fill-rule="evenodd" clip-rule="evenodd" d="M149.763 179.491C151.314 203.389 157.923 235.66 163.473 260.615L203.703 260.859L202.316 253.625C212.679 253.462 216.923 241.188 215.699 230.783C213.332 210.055 208.028 183.962 202.887 167.217C188.77 121.29 146.009 123.972 149.763 179.491Z" fill="#4646BB"/>
<path d="M202.316 253.625C202.316 253.625 194.155 213.631 190.81 180.873" stroke="black" stroke-width="3.891" stroke-miterlimit="22.9256" stroke-linecap="round"/>
<path d="M149.763 168.03C149.437 171.687 149.437 175.508 149.763 179.491C151.232 201.601 156.944 230.783 162.167 254.763" stroke="black" stroke-width="3.891" stroke-miterlimit="22.9256" stroke-linecap="round" stroke-linejoin="round"/>
<path d="M143.725 289.96H101.372C101.102 289.96 100.883 290.251 100.883 290.61V292.561C100.883 292.92 101.102 293.211 101.372 293.211H143.725C143.995 293.211 144.214 292.92 144.214 292.561V290.61C144.214 290.251 143.995 289.96 143.725 289.96Z" fill="#442359"/>
<path fill-rule="evenodd" clip-rule="evenodd" d="M172.449 271.589C145.846 274.353 156.292 291.26 160.616 291.26C163.636 291.26 199.378 290.854 199.378 290.854L196.195 271.914C189.096 271.752 179.304 270.857 172.449 271.589Z" fill="#542A6F"/>
<path fill-rule="evenodd" clip-rule="evenodd" d="M181.017 271.345C191.871 276.222 190.402 286.058 187.301 291.017C176.611 291.098 162.493 291.26 160.616 291.26C156.292 291.26 145.846 274.353 172.449 271.589C174.979 271.345 177.998 271.264 181.017 271.345Z" fill="#454A84"/>
<path d="M199.704 289.96H157.352C157.082 289.96 156.863 290.251 156.863 290.61V292.561C156.863 292.92 157.082 293.211 157.352 293.211H199.704C199.975 293.211 200.194 292.92 200.194 292.561V290.61C200.194 290.251 199.975 289.96 199.704 289.96Z" fill="#442359"/>
<path d="M74.2897 246.147C90.2767 240.97 99.0239 223.864 93.8271 207.939C88.6303 192.014 71.4575 183.301 55.4705 188.477C39.4835 193.654 30.7363 210.76 35.933 226.685C41.1298 242.61 58.3027 251.324 74.2897 246.147Z" fill="#FFB53A"/>
<path d="M104.032 262.033C110.872 259.818 114.614 252.499 112.391 245.686C110.167 238.872 102.82 235.144 95.9795 237.359C89.1393 239.574 85.3967 246.893 87.6202 253.706C89.8437 260.52 97.1913 264.248 104.032 262.033Z" fill="#FFB53A"/>
<path d="M110.349 246.471C110.267 246.228 110.43 245.984 110.675 245.902C110.92 245.821 111.165 245.984 111.246 246.228C111.573 247.366 111.736 248.585 111.654 249.804C111.573 250.942 111.328 252.08 111.002 253.218C110.92 253.462 110.675 253.625 110.43 253.543C110.186 253.462 110.022 253.137 110.104 252.893C110.43 251.918 110.675 250.861 110.757 249.723C110.757 248.666 110.675 247.528 110.349 246.471ZM109.533 254.112C109.614 253.95 109.941 253.868 110.186 253.95C110.349 254.112 110.43 254.356 110.349 254.6C110.186 254.763 110.104 255.006 109.941 255.169C109.859 255.332 109.696 255.576 109.614 255.738C109.451 255.901 109.125 255.982 108.961 255.819C108.717 255.657 108.717 255.413 108.88 255.169C108.961 255.006 109.125 254.844 109.206 254.681C109.288 254.519 109.451 254.356 109.533 254.112Z" fill="white"/>
<path fill-rule="evenodd" clip-rule="evenodd" d="M60.8155 242.895C54.2057 243.22 47.9222 241.432 42.7812 238.099C37.9666 233.059 34.8657 226.394 34.5393 218.915C33.6417 202.17 46.535 187.945 63.2636 187.051C69.9551 186.726 76.1569 188.514 81.3795 191.847C86.1941 196.886 89.2134 203.633 89.6215 211.03C90.5191 227.775 77.6258 242.001 60.8155 242.895Z" fill="#E8A438" fill-opacity="0.501961"/>
<path d="M50.3702 218.427C49.5542 218.102 48.6566 218.184 47.7589 218.427C46.2901 218.915 45.1476 220.216 45.6372 221.842C46.4533 224.361 49.799 222.492 50.2886 223.874C50.4518 224.443 49.9622 224.849 49.391 225.012C48.8198 225.256 48.1669 225.174 47.6773 224.768L46.9429 226.475C47.8405 226.963 48.8198 226.963 49.799 226.637C51.3495 226.15 52.4919 224.849 51.9207 223.142C51.0231 220.46 47.8405 222.492 47.3509 221.11C47.1877 220.541 47.7589 220.134 48.2485 219.972C48.6566 219.891 49.2278 219.809 49.6358 220.134L50.3702 218.427Z" fill="white"/>
<path d="M55.4297 224.605L57.0618 224.036L55.1033 217.94L57.3066 217.208L56.817 215.745L50.7783 217.696L51.1863 219.159L53.3896 218.427L55.4297 224.605Z" fill="white"/>
<path d="M60.1628 223.061L61.7948 222.492L60.8156 219.484L61.6316 219.24L64.2429 221.76L66.283 221.11L63.2637 218.509C64.3245 217.94 64.5693 216.964 64.2429 215.826C63.6717 214.119 62.2028 213.957 60.5708 214.526L57.6331 215.42L60.1628 223.061ZM59.7547 216.314L60.8972 215.989C61.55 215.745 62.2028 215.664 62.5292 216.395C62.7741 217.289 61.958 217.533 61.3868 217.696L60.326 218.021L59.7547 216.314Z" fill="white"/>
<path d="M67.1805 220.785L72.5663 218.996L72.0767 217.452L68.4046 218.671L67.8333 217.127L71.1791 216.07L70.6895 214.526L67.3437 215.582L66.9357 214.119L70.4447 212.981L69.8734 211.437L64.7324 213.144L67.1805 220.785Z" fill="white"/>
<path d="M76.565 209.974C75.749 209.648 74.8514 209.648 73.9537 209.974C72.4849 210.461 71.3424 211.762 71.9137 213.388C72.7297 215.908 76.0754 213.957 76.4834 215.42C76.6466 215.908 76.157 216.395 75.5858 216.558C75.0146 216.72 74.3617 216.639 73.8721 216.314L73.1377 218.021C74.0353 218.427 75.0146 218.427 75.9938 218.102C77.5443 217.615 78.6867 216.395 78.1155 214.688C77.2995 212.006 74.0353 214.038 73.5457 212.656C73.3825 212.087 73.9537 211.681 74.4434 211.518C74.8514 211.355 75.4226 211.355 75.8306 211.599L76.565 209.974Z" fill="white"/>
<path d="M82.7667 207.941C81.9507 207.616 81.053 207.616 80.1554 207.941C78.6865 208.429 77.5441 209.73 78.1153 211.355C78.9313 213.875 82.2771 212.006 82.6851 213.388C82.8483 213.875 82.3587 214.363 81.7875 214.526C81.2162 214.769 80.5634 214.607 80.0738 214.282L79.3394 215.989C80.237 216.395 81.2162 216.476 82.1955 216.151C83.7459 215.582 84.8884 214.363 84.3172 212.656C83.5011 209.974 80.237 212.006 79.7474 210.624C79.5842 210.055 80.1554 209.648 80.645 209.486C81.053 209.323 81.7059 209.323 82.0323 209.567L82.7667 207.941Z" fill="white"/>
<path d="M39.0274 222.492C37.8849 216.964 39.109 211.681 41.2307 206.885M42.9443 204.04C43.5972 203.227 44.1684 202.414 44.9028 201.682" stroke="white" stroke-width="8.08132" stroke-miterlimit="22.9256" stroke-linecap="round" stroke-linejoin="round"/>
<path d="M237.079 241.35C253.889 241.35 267.517 227.776 267.517 211.03C267.517 194.285 253.889 180.71 237.079 180.71C220.268 180.71 206.641 194.285 206.641 211.03C206.641 227.776 220.268 241.35 237.079 241.35Z" fill="#E64A19"/>
<path d="M213.74 265.574C220.906 265.574 226.715 259.787 226.715 252.649C226.715 245.511 220.906 239.725 213.74 239.725C206.574 239.725 200.765 245.511 200.765 252.649C200.765 259.787 206.574 265.574 213.74 265.574Z" fill="#E64A19"/>
<path d="M202.887 252.731C202.887 252.487 202.724 252.324 202.479 252.324C202.234 252.324 201.989 252.487 201.989 252.812C201.989 254.031 202.234 255.25 202.724 256.307C203.132 257.445 203.703 258.421 204.356 259.396C204.519 259.559 204.845 259.64 205.009 259.477C205.253 259.315 205.253 259.071 205.172 258.827C204.519 257.933 203.948 257.039 203.54 255.982C203.132 255.007 202.969 253.95 202.887 252.731ZM206.069 259.802C205.906 259.64 205.58 259.64 205.417 259.884C205.253 260.046 205.253 260.371 205.417 260.534C205.58 260.697 205.743 260.778 205.988 260.94C206.151 261.103 206.314 261.184 206.477 261.347C206.722 261.51 206.967 261.428 207.13 261.266C207.293 261.022 207.212 260.778 207.049 260.615C206.885 260.453 206.722 260.371 206.559 260.209C206.396 260.128 206.233 259.965 206.069 259.802Z" fill="white"/>
<path d="M198.581 185.266C197.395 180.86 200.02 176.332 204.443 175.151C208.866 173.971 213.413 176.585 214.598 180.991C215.783 185.397 213.158 189.926 208.735 191.106C204.312 192.287 199.766 189.672 198.581 185.266Z" fill="#E64A19"/>
<path d="M204.764 176.483C204.927 176.483 205.009 176.321 204.927 176.158C204.927 175.996 204.764 175.914 204.601 175.914C203.785 176.158 203.132 176.483 202.479 176.971C201.908 177.378 201.336 177.947 200.928 178.516C200.765 178.597 200.847 178.841 200.928 178.922C201.092 179.003 201.255 179.003 201.336 178.841C201.826 178.353 202.316 177.865 202.887 177.459C203.377 177.052 204.029 176.727 204.764 176.483ZM200.928 179.572C201.01 179.491 200.928 179.328 200.765 179.247C200.602 179.166 200.439 179.166 200.357 179.328C200.276 179.491 200.276 179.572 200.194 179.735C200.112 179.816 200.112 179.979 200.031 180.141C199.949 180.304 200.031 180.467 200.194 180.467C200.357 180.548 200.52 180.467 200.602 180.304C200.602 180.223 200.684 180.06 200.765 179.979C200.765 179.816 200.847 179.735 200.928 179.572Z" fill="white"/>
<path fill-rule="evenodd" clip-rule="evenodd" d="M248.83 234.116C255.276 232.409 260.662 228.751 264.579 223.955C267.598 217.696 268.414 210.461 266.456 203.227C262.131 187.051 245.484 177.459 229.245 181.767C222.798 183.474 217.412 187.132 213.495 191.928C210.558 198.187 209.66 205.503 211.618 212.737C215.943 228.913 232.672 238.505 248.83 234.116Z" fill="#C32E0F" fill-opacity="0.501961"/>
<path d="M216.923 214.282H218.473L218.963 212.9H221.492L222.064 214.282H223.614L220.84 207.86H219.697L216.923 214.282ZM221.003 211.681H219.452L220.187 209.73L221.003 211.681Z" fill="white"/>
<path d="M224.267 214.282H225.736V209.649L228.51 214.282H230.387V207.86H229V212.331H228.918L226.225 207.86H224.267V214.282Z" fill="white"/>
<path d="M231.04 214.282H232.754L234.223 211.681L235.855 214.282H237.568L235.283 210.868L237.323 207.86H235.61L234.304 210.055L232.917 207.86H231.203L233.325 210.868L231.04 214.282Z" fill="white"/>
<path d="M238.221 214.282H239.69V207.86H238.221V214.282Z" fill="white"/>
<path d="M240.996 214.282H245.565V212.981H242.383V211.599H245.239V210.299H242.383V209.161H245.402V207.86H240.996V214.282Z" fill="white"/>
<path d="M247.932 214.282H249.319V209.08H251.196V207.86H246.055V209.08H247.932V214.282Z" fill="white"/>
<path d="M253.481 214.282H254.868V211.518L257.316 207.86H255.602L254.215 210.218L252.828 207.86H251.033L253.481 211.518V214.282Z" fill="white"/>
<path d="M263.273 208.023C262.62 202.414 259.846 197.781 256.337 193.879M253.807 191.684C252.991 191.034 252.175 190.465 251.278 189.977" stroke="white" stroke-width="8.08132" stroke-miterlimit="22.9256" stroke-linecap="round" stroke-linejoin="round"/>
<path fill-rule="evenodd" clip-rule="evenodd" d="M200.194 13.0155H202.316V16.6734H205.988V18.7869H202.316V22.5261H200.194V18.7869H196.522V16.6734H200.194V13.0155Z" fill="#97DCF3"/>
<path fill-rule="evenodd" clip-rule="evenodd" d="M271.678 167.623H273.8V171.281H277.472V173.395H273.8V177.134H271.678V173.395H268.006V171.281H271.678V167.623Z" fill="#97DCF3"/>
<path fill-rule="evenodd" clip-rule="evenodd" d="M57.2251 175.914H59.3468V179.572H63.1006V181.686H59.3468V185.344H57.2251V181.686H53.553V179.572H57.2251V175.914Z" fill="#97DCF3"/>
<path fill-rule="evenodd" clip-rule="evenodd" d="M35.2737 85.5234H37.3954V89.2626H41.0675V91.2948H37.3954V95.034H35.2737V91.2948H31.6016V89.2626H35.2737V85.5234Z" fill="#97DCF3"/>
<path fill-rule="evenodd" clip-rule="evenodd" d="M258.132 242.407H259.519V244.846H261.968V246.228H259.519V248.666H258.132V246.228H255.684V244.846H258.132V242.407Z" fill="#97DCF3"/>
<path fill-rule="evenodd" clip-rule="evenodd" d="M71.8321 284.189H73.2194V286.627H75.6675V288.009H73.2194V290.448H71.8321V288.009H69.384V286.627H71.8321V284.189Z" fill="#97DCF3"/>
<path d="M170.735 63.1696L171.306 64.4701" stroke="#542A6F" stroke-width="3.891" stroke-miterlimit="22.9256" stroke-linecap="round" stroke-linejoin="round"/>
<path fill-rule="evenodd" clip-rule="evenodd" d="M130.505 42.7666C130.505 36.6701 129.118 35.2882 122.997 35.2882C129.118 35.2882 130.505 33.9063 130.505 27.7285C130.505 33.9063 131.892 35.2882 138.094 35.2882C131.892 35.2882 130.505 36.6701 130.505 42.7666Z" fill="white"/>
<path fill-rule="evenodd" clip-rule="evenodd" d="M215.943 137.628C215.943 131.45 214.556 130.069 208.436 130.069C214.556 130.069 215.943 128.687 215.943 122.59C215.943 128.687 217.331 130.069 223.532 130.069C217.331 130.069 215.943 131.45 215.943 137.628Z" fill="white"/>
<path fill-rule="evenodd" clip-rule="evenodd" d="M96.0681 182.661C96.0681 176.483 94.6808 175.102 88.479 175.102C94.6808 175.102 96.0681 173.72 96.0681 167.542C96.0681 173.72 97.4554 175.102 103.576 175.102C97.4554 175.102 96.0681 176.483 96.0681 182.661Z" fill="white"/>
<path fill-rule="evenodd" clip-rule="evenodd" d="M205.743 238.424C205.743 233.547 204.682 232.49 199.786 232.49C204.682 232.49 205.743 231.352 205.743 226.556C205.743 231.352 206.885 232.49 211.7 232.49C206.885 232.49 205.743 233.547 205.743 238.424Z" fill="white"/>
<path d="M105.126 17.405C109.948 17.405 113.858 13.5109 113.858 8.70734C113.858 3.90373 109.948 0.00964355 105.126 0.00964355C100.304 0.00964355 96.3945 3.90373 96.3945 8.70734C96.3945 13.5109 100.304 17.405 105.126 17.405Z" fill="#97DCF3"/>
<path d="M31.6832 188.351C36.5055 188.351 40.4147 184.457 40.4147 179.654C40.4147 174.85 36.5055 170.956 31.6832 170.956C26.8609 170.956 22.9517 174.85 22.9517 179.654C22.9517 184.457 26.8609 188.351 31.6832 188.351Z" fill="#97DCF3"/>
<path d="M272.086 244.195C276.909 244.195 280.818 240.301 280.818 235.498C280.818 230.694 276.909 226.8 272.086 226.8C267.264 226.8 263.355 230.694 263.355 235.498C263.355 240.301 267.264 244.195 272.086 244.195Z" fill="#97DCF3"/>
<path d="M250.217 105.683C253.281 105.683 255.766 103.208 255.766 100.155C255.766 97.1023 253.281 94.6276 250.217 94.6276C247.152 94.6276 244.668 97.1023 244.668 100.155C244.668 103.208 247.152 105.683 250.217 105.683Z" fill="#97DCF3"/>
<path d="M93.7018 101.13C93.9466 101.212 94.1914 101.456 94.1098 101.781C94.1098 102.025 93.7834 102.269 93.5386 102.187C93.457 102.187 90.6009 101.7 87.9896 100.318C86.6023 101.456 84.807 101.943 83.0934 102.025C81.7877 102.025 80.4005 101.781 79.1764 101.293C77.9524 100.724 76.7283 99.9925 75.8307 99.017C75.2595 98.448 74.7698 97.7977 74.3618 97.0662C73.8722 97.3913 73.4642 97.6352 72.9746 97.7977C71.5057 98.3667 70.0369 98.6106 68.568 98.3667C67.1807 98.1229 65.8751 97.4726 64.7327 96.2533C64.243 95.6843 63.835 95.1153 63.427 94.3837C61.7133 95.1966 59.9181 95.603 58.0412 95.603C56.2459 95.603 54.369 95.1966 52.5738 94.3837C49.1464 92.8392 46.0455 89.9129 44.0054 85.8486C43.8422 85.6047 43.9238 85.2796 44.2502 85.117C44.4951 84.9544 44.8215 85.117 44.9847 85.3608C46.8615 89.2626 49.7993 91.9451 52.9818 93.4082C54.6139 94.1398 56.4091 94.465 58.0412 94.465C59.7549 94.5463 61.4685 94.1398 63.019 93.4082C62.1213 91.2135 61.6317 88.3685 61.8765 84.7106C62.0397 81.7029 63.2638 79.9959 64.6511 79.2643C65.5487 78.8579 66.4463 78.7766 67.344 79.0205C68.16 79.2643 68.976 79.7521 69.5472 80.5649C70.7713 82.0281 71.1793 84.4667 69.8737 87.3117C68.568 90.4006 66.6095 92.5141 64.4062 93.896C64.7327 94.465 65.1407 95.034 65.5487 95.5217C66.4463 96.4971 67.5888 97.0662 68.8128 97.31C69.9553 97.4726 71.2609 97.31 72.5666 96.8223C72.9746 96.5784 73.4642 96.4159 73.8722 96.0907C72.9746 93.896 72.893 91.1322 74.1986 87.962C75.0147 85.9299 76.4019 84.8731 77.626 84.6293C78.1156 84.548 78.6052 84.6293 79.0948 84.7106C79.5028 84.8731 79.9109 85.1983 80.2373 85.5234C80.8085 86.3363 81.0533 87.5556 80.4821 89.1813C79.3396 92.4328 77.3812 94.8714 75.2595 96.4971C75.5859 97.1474 76.0755 97.7165 76.5651 98.2855C77.4628 99.0983 78.442 99.8299 79.5844 100.236C80.6453 100.724 81.8693 100.968 83.0934 100.887C84.4806 100.887 85.7863 100.48 87.0103 99.7486C85.9495 99.017 85.0519 98.2042 84.5622 97.2287C83.4198 95.034 83.6646 93.327 84.4806 92.2702C85.2151 91.3761 86.2759 90.8071 87.4183 90.7258C88.4792 90.6445 89.6216 90.9696 90.3561 91.7825C91.2537 92.758 91.5801 94.3024 90.7641 96.4971C90.2745 97.7164 89.6216 98.7732 88.8872 99.586C91.1721 100.724 93.7018 101.13 93.7018 101.13ZM85.5415 96.6597C86.0311 97.6352 86.8471 98.3667 87.908 99.017C88.6424 98.2855 89.2952 97.31 89.7848 96.0907C90.4377 94.3837 90.1929 93.2457 89.54 92.5141C89.0504 92.0264 88.2344 91.7825 87.5 91.8638C86.6839 91.8638 85.8679 92.2702 85.3783 92.9205C84.7254 93.7334 84.6438 94.9527 85.5415 96.6597ZM75.1779 88.3685C74.0354 91.1322 74.0354 93.4895 74.7698 95.4404C76.7283 93.9773 78.3604 91.7012 79.4212 88.7749C79.9108 87.6369 79.7476 86.7427 79.3396 86.255C79.1764 86.0111 79.0132 85.8486 78.7684 85.7673C78.442 85.686 78.1972 85.686 77.8708 85.7673C76.8915 85.9299 75.8307 86.7427 75.1779 88.3685ZM62.9374 84.7106C62.7742 88.2059 63.1822 90.8884 63.9166 92.8392C65.9567 91.6199 67.6704 89.669 68.8944 86.9053C70.0369 84.3854 69.6288 82.4345 68.7312 81.2152C68.2416 80.6462 67.6704 80.2398 67.0175 80.0772C66.4463 79.9146 65.7119 79.9146 65.1407 80.2398C63.9982 80.8088 63.1006 82.1907 62.9374 84.7106Z" fill="black"/>
<path d="M199.704 98.8545C199.378 98.9357 199.133 98.6919 199.052 98.448C199.052 98.1229 199.215 97.879 199.541 97.7977C199.541 97.7977 202.071 97.3913 204.356 96.2533C203.54 95.4404 202.887 94.3837 202.397 93.1644C201.581 90.9696 201.989 89.4252 202.805 88.531C203.621 87.7182 204.682 87.3117 205.825 87.393C206.885 87.5556 208.028 88.0433 208.681 88.9375C209.578 90.0755 209.823 91.7012 208.681 93.896C208.109 94.8714 207.212 95.6843 206.233 96.4159C207.375 97.2287 208.762 97.5539 210.15 97.6352C211.292 97.6352 212.516 97.3913 213.658 96.9036C214.719 96.4971 215.78 95.8469 216.596 94.9527C217.167 94.3837 217.575 93.8147 217.983 93.1644C215.78 91.5386 213.903 89.1 212.761 85.8486C212.108 84.2228 212.353 83.0035 213.006 82.1907C213.332 81.8655 213.658 81.5404 214.148 81.4591C214.556 81.2965 215.046 81.2152 215.535 81.3778C216.841 81.6216 218.228 82.5971 219.044 84.6293C220.35 87.7994 220.268 90.5632 219.371 92.7579C219.779 93.0831 220.187 93.2457 220.676 93.4895C221.9 93.9773 223.206 94.1398 224.43 93.9773C225.654 93.7334 226.715 93.1644 227.694 92.1889C228.102 91.7012 228.51 91.2135 228.837 90.5632C226.633 89.1813 224.675 87.0679 223.288 84.0603C221.982 81.1339 222.472 78.6953 223.614 77.2322C224.267 76.5006 225.083 75.9316 225.899 75.6877C226.797 75.4438 227.694 75.5251 228.51 75.9316C229.979 76.6631 231.203 78.3702 231.366 81.3778C231.53 85.0357 231.122 87.962 230.224 90.0755C231.774 90.8071 233.406 91.2135 235.12 91.2135C236.834 91.2135 238.547 90.8071 240.18 90.0755C243.444 88.6123 246.381 85.9299 248.258 82.0281C248.421 81.7842 248.748 81.7029 248.993 81.7842C249.238 81.9468 249.319 82.2719 249.238 82.5158C247.197 86.5801 244.097 89.5065 240.669 91.0509C238.874 91.8638 236.997 92.2702 235.12 92.2702C233.325 92.2702 231.448 91.8638 229.734 91.0509C229.408 91.7825 228.918 92.4328 228.429 92.9205C227.368 94.1398 226.062 94.7901 224.593 95.034C223.206 95.2778 221.737 95.034 220.268 94.465C219.779 94.3024 219.289 94.0585 218.881 93.7334C218.473 94.465 217.983 95.1153 217.412 95.6843C216.433 96.6597 215.291 97.3913 214.067 97.9603C212.761 98.448 211.455 98.6919 210.15 98.6919C208.354 98.6919 206.641 98.1229 205.172 96.9849C202.642 98.3667 199.704 98.8545 199.704 98.8545ZM205.335 95.6843C206.314 95.1153 207.212 94.3024 207.701 93.4082C208.599 91.6199 208.436 90.4006 207.865 89.5878C207.375 88.9375 206.559 88.6123 205.743 88.531C204.927 88.4497 204.111 88.6936 203.621 89.2626C203.05 89.9129 202.805 91.0509 203.458 92.7579C203.866 93.9772 204.601 94.9527 205.335 95.6843ZM218.391 92.1889C219.126 90.1568 219.208 87.7994 218.065 85.0357C217.331 83.41 216.27 82.5971 215.372 82.4345C215.046 82.3532 214.719 82.3532 214.475 82.4345C214.23 82.5158 213.985 82.6784 213.822 82.9222C213.414 83.41 213.332 84.3041 213.74 85.5234C214.801 88.4497 216.515 90.7258 218.391 92.1889ZM229.245 89.5878C230.061 87.5556 230.469 84.8731 230.224 81.3778C230.142 78.8579 229.163 77.476 228.021 76.907C227.449 76.5819 226.797 76.5819 226.225 76.7444C225.573 76.907 224.92 77.3134 224.512 77.8825C223.532 79.1018 223.206 81.1339 224.349 83.5725C225.573 86.3363 227.286 88.2872 229.245 89.5878Z" fill="black"/>
<path d="M130.342 63.3322C129.036 66.4211 129.036 66.4211 129.036 66.4211" stroke="#542A6F" stroke-width="3.891" stroke-miterlimit="22.9256" stroke-linecap="round" stroke-linejoin="round"/>
<path d="M131.974 64.3888C131.484 65.4455 131.239 66.1771 130.994 66.5835" stroke="#542A6F" stroke-width="3.891" stroke-miterlimit="22.9256" stroke-linecap="round" stroke-linejoin="round"/>
<path d="M133.606 65.0392C133.361 65.6082 133.198 66.0959 133.034 66.5024" stroke="#542A6F" stroke-width="3.891" stroke-miterlimit="22.9256" stroke-linecap="round" stroke-linejoin="round"/>
<path d="M169.185 64.2263C169.593 65.283 169.919 66.0146 170.082 66.4211" stroke="#542A6F" stroke-width="3.891" stroke-miterlimit="22.9256" stroke-linecap="round" stroke-linejoin="round"/>
<path d="M167.471 64.8766C167.797 65.4456 167.961 65.9333 168.124 66.3397" stroke="#542A6F" stroke-width="3.891" stroke-miterlimit="22.9256" stroke-linecap="round" stroke-linejoin="round"/>
</g>
<defs>
<clipPath id="clip0_461_18038">
<rect width="283" height="302" fill="white" transform="translate(0.0212402)"/>
</clipPath>
</defs>
</svg>
