<svg width="360" height="312" viewBox="0 0 360 312" fill="none" xmlns="http://www.w3.org/2000/svg">
<g clip-path="url(#clip0_461_17951)">
<path d="M44.8291 166.971C17.1049 139.771 15.0728 93.4943 40.3294 63.5743C65.5498 33.6905 108.515 31.5145 136.239 58.7145C136.384 58.8596 183.995 106.514 222.714 67.9625C250.293 40.6175 293.222 42.5396 318.624 72.242C344.026 101.981 342.212 148.257 314.633 175.638C183.523 306.162 45.2283 167.37 44.8291 166.971Z" fill="#B1EAFD"/>
<path fill-rule="evenodd" clip-rule="evenodd" d="M185.192 259.922C271.667 259.922 341.776 271.564 341.776 285.925C341.776 300.287 271.667 311.929 185.192 311.929C98.7175 311.929 28.6448 300.287 28.6448 285.925C28.6448 271.564 98.7175 259.922 185.192 259.922Z" fill="#97DCF3" fill-opacity="0.501961"/>
<path fill-rule="evenodd" clip-rule="evenodd" d="M144.513 123.197C135.949 125.554 120.091 111.338 142.88 55.2692C146.001 47.5807 137.001 -12.6583 188.603 2.5012C216.473 -3.4828 221.263 30.1727 221.517 55.9946C221.771 84.8629 253.124 131.611 204.715 117.43C194.772 114.529 188.531 117.757 182.326 118.917C170.205 121.202 153.077 120.876 144.513 123.197Z" fill="#454A84"/>
<path fill-rule="evenodd" clip-rule="evenodd" d="M174.995 86.4222H180.838H186.68L189.112 99.2607H180.838H172.528L174.995 86.4222Z" fill="#FAC0C0"/>
<path fill-rule="evenodd" clip-rule="evenodd" d="M174.161 90.8468C178.552 91.6446 183.088 91.5721 187.479 90.6292L186.68 86.4222H180.838H174.996L174.161 90.8468Z" fill="#FF99AC"/>
<path fill-rule="evenodd" clip-rule="evenodd" d="M148.614 42.3583C131.704 28.6495 128.329 58.3881 146.509 57.554C152.714 97.0484 206.058 99.0068 214.985 57.554C233.528 56.8649 229.246 32.1311 215.058 40.7988C210.957 43.3012 212.191 45.3321 212.046 51.6063C210.703 35.0324 193.031 37.2809 182.543 41.8143C175.83 43.8452 167.702 34.7423 160.589 36.7369C154.311 39.4207 150.61 44.4617 148.178 50.6996L148.614 42.3583Z" fill="#FAC0C0"/>
<path fill-rule="evenodd" clip-rule="evenodd" d="M200.615 102.452C195.172 102.452 197.131 98.4992 194.01 98.1728C190.2 97.8101 180.003 97.665 169.044 97.8101C162.73 98.1365 165.633 100.857 163.927 102.198C99.1528 123.161 87.5406 197.471 131.377 224.889L151.335 229.893L160.698 220.537L237.956 226.484C270.252 181.695 260.2 114.638 200.615 102.452Z" fill="#2A9EF4"/>
<path d="M136.675 183.363C136.675 183.363 137.473 157.469 145.457 143.325" stroke="black" stroke-width="3.9998" stroke-miterlimit="22.9256" stroke-linecap="round" stroke-linejoin="round"/>
<path fill-rule="evenodd" clip-rule="evenodd" d="M160.698 220.537C160.698 220.537 167.193 228.443 167.847 234.499L151.335 229.893C151.335 229.893 157.758 223.148 160.698 220.537Z" fill="#FAC0C0"/>
<path fill-rule="evenodd" clip-rule="evenodd" d="M208.018 179.519L268.402 211.615C265.861 216.438 262.777 220.863 259.221 224.852C251.782 224.236 243.072 225.106 233.674 227.464C220.174 230.836 205.151 234.971 187.043 240.556L187.007 240.52C178.878 237.872 167.847 234.499 167.847 234.499C167.012 227.754 160.698 220.537 160.698 220.537C159.9 218.542 155.001 209.221 150.864 202.149C147.562 196.528 142.118 189.855 140.014 187.353V187.316C139.723 184.741 139.578 182.166 139.578 179.519C139.578 141.765 170.205 111.156 208.018 111.156V179.519Z" fill="white"/>
<path fill-rule="evenodd" clip-rule="evenodd" d="M210.558 177.597L270.978 209.693C276.24 199.828 278.998 188.803 278.998 177.597C278.998 139.843 248.37 109.198 210.558 109.198V177.597Z" fill="#542A6F"/>
<path d="M160.698 220.537C160.698 220.537 142.699 183.182 127.712 176.4" stroke="black" stroke-width="3.9998" stroke-miterlimit="22.9256" stroke-linecap="round" stroke-linejoin="round"/>
<path fill-rule="evenodd" clip-rule="evenodd" d="M116.317 264.31C116.317 264.31 108.043 278.455 122.668 294.376C122.668 294.376 205.731 291.547 238.464 281.719C271.159 271.927 285.566 264.528 284.477 245.561C283.388 226.593 261.579 220.5 233.673 227.464C205.731 234.427 171.294 244.69 116.317 264.31Z" fill="#4646BB"/>
<path fill-rule="evenodd" clip-rule="evenodd" d="M114.721 268.59C104.451 269.279 66.8926 271.382 66.8926 286.288C66.8926 295.681 75.2752 296.842 90.8428 295.681C103.072 294.775 116.063 293.215 121.107 292.562C113.668 283.532 113.414 275.19 114.43 269.968L114.467 269.75C114.467 269.642 114.503 269.497 114.539 269.388L114.575 269.134C114.612 268.953 114.648 268.808 114.684 268.662L114.721 268.59Z" fill="#542A6F"/>
<path fill-rule="evenodd" clip-rule="evenodd" d="M94.0362 270.73C60.5784 251.109 72.3721 217.925 110.293 221.117C130.978 222.858 166.613 234.028 187.043 240.556C167.665 246.54 144.731 254.156 116.317 264.311C115.591 265.58 115.12 266.994 114.72 268.59C110.692 268.844 102.528 269.352 94.0362 270.73Z" fill="#4646BB"/>
<path d="M284.477 245.561C283.388 226.593 261.579 220.5 233.674 227.464C205.732 234.427 171.294 244.69 116.317 264.31C116.317 264.31 115.664 265.435 115.047 267.429" stroke="black" stroke-width="3.9998" stroke-miterlimit="22.9256" stroke-linecap="round" stroke-linejoin="round"/>
<path fill-rule="evenodd" clip-rule="evenodd" d="M126.042 270.222C118.023 270.766 88.5566 272.434 88.5566 284.076C88.5566 291.438 95.1611 292.381 107.354 291.474C116.934 290.785 127.131 289.516 131.05 289.044C125.244 281.936 125.026 275.408 125.825 271.31V271.165C125.861 271.056 125.897 270.947 125.897 270.875L125.934 270.657C125.97 270.512 126.006 270.403 126.042 270.294V270.222Z" fill="#FAC0C0"/>
<path fill-rule="evenodd" clip-rule="evenodd" d="M114.212 271.274C102.818 272.724 88.5566 275.988 88.5566 284.076C88.5566 291.438 95.1611 292.381 107.354 291.474C111.455 291.184 115.664 290.785 119.438 290.386C114.14 282.915 113.559 276.061 114.212 271.274Z" fill="#FAC0C0"/>
<path fill-rule="evenodd" clip-rule="evenodd" d="M197.857 288.936L235.125 289.697C235.125 289.697 239.443 284.91 240.75 281.029C240.024 281.283 239.226 281.501 238.464 281.718C228.412 284.765 213.57 287.086 197.857 288.936Z" fill="#4646BB"/>
<path d="M240.06 281.247C230.988 283.967 216.8 286.542 202.611 288.355" stroke="black" stroke-width="3.9998" stroke-miterlimit="22.9256" stroke-linecap="round" stroke-linejoin="round"/>
<path fill-rule="evenodd" clip-rule="evenodd" d="M273.264 267.683C295.219 271.02 300.662 290.64 275.333 290.568C262.232 290.531 249.386 289.661 236.831 287.884L236.758 287.739C238.137 285.998 239.988 283.351 240.75 281.029C255.338 276.605 266.079 272.579 273.264 267.683Z" fill="#542A6F"/>
<path fill-rule="evenodd" clip-rule="evenodd" d="M268.292 270.657C278.018 275.698 277.981 285.78 262.16 285.708C254.321 285.672 246.628 285.273 239.08 284.439C239.77 283.314 240.387 282.154 240.75 281.03C252.289 277.512 261.398 274.284 268.292 270.657Z" fill="#FAC0C0"/>
<path d="M244.016 198.668L268.401 211.615C265.861 216.438 262.777 220.863 259.22 224.852" stroke="black" stroke-width="3.9998" stroke-miterlimit="22.9256" stroke-linecap="round" stroke-linejoin="round"/>
<path d="M245.794 196.31L270.978 209.693C276.24 199.828 278.998 188.803 278.998 177.597C278.998 139.843 248.37 109.198 210.558 109.198" stroke="black" stroke-width="3.9998" stroke-miterlimit="22.9256" stroke-linecap="round" stroke-linejoin="round"/>
<path d="M57.3486 201.243C77.2699 201.243 93.4192 185.103 93.4192 165.194C93.4192 145.284 77.2699 129.145 57.3486 129.145C37.4274 129.145 21.2781 145.284 21.2781 165.194C21.2781 185.103 37.4274 201.243 57.3486 201.243Z" fill="#97DCF3"/>
<path d="M290.465 107.384C310.386 107.384 326.535 91.2447 326.535 71.3353C326.535 51.426 310.386 35.2863 290.465 35.2863C270.543 35.2863 254.394 51.426 254.394 71.3353C254.394 91.2447 270.543 107.384 290.465 107.384Z" fill="#97DCF3"/>
<path d="M301.387 153.733C306.217 153.733 310.133 149.82 310.133 144.993C310.133 140.166 306.217 136.253 301.387 136.253C296.557 136.253 292.642 140.166 292.642 144.993C292.642 149.82 296.557 153.733 301.387 153.733Z" fill="#97DCF3"/>
<path d="M98.2819 124.792C103.112 124.792 107.027 120.879 107.027 116.052C107.027 111.225 103.112 107.312 98.2819 107.312C93.4519 107.312 89.5364 111.225 89.5364 116.052C89.5364 120.879 93.4519 124.792 98.2819 124.792Z" fill="#97DCF3"/>
<path fill-rule="evenodd" clip-rule="evenodd" d="M303.529 196.456C303.529 187.933 301.605 186.047 293.114 186.047C301.605 186.047 303.529 184.125 303.529 175.638C303.529 184.125 305.452 186.047 313.943 186.047C305.452 186.047 303.529 187.933 303.529 196.456Z" fill="white"/>
<path fill-rule="evenodd" clip-rule="evenodd" d="M315.504 130.305C315.504 121.782 313.58 119.896 305.089 119.896C313.58 119.896 315.504 117.974 315.504 109.488C315.504 117.974 317.391 119.896 325.918 119.896C317.391 119.896 315.504 121.782 315.504 130.305Z" fill="white"/>
<path fill-rule="evenodd" clip-rule="evenodd" d="M51.7241 63.1754C51.7241 54.689 49.8371 52.7668 41.3093 52.7668C49.8371 52.7668 51.7241 50.8447 51.7241 42.3583C51.7241 50.8447 53.6473 52.7668 62.1388 52.7668C53.6473 52.7668 51.7241 54.689 51.7241 63.1754Z" fill="white"/>
<path fill-rule="evenodd" clip-rule="evenodd" d="M128.22 133.787C128.22 125.3 126.296 123.378 117.805 123.378C126.296 123.378 128.22 121.456 128.22 112.969C128.22 121.456 130.143 123.378 138.634 123.378C130.143 123.378 128.22 125.3 128.22 133.787Z" fill="white"/>
<path fill-rule="evenodd" clip-rule="evenodd" d="M258.386 26.546C258.386 18.0596 256.463 16.1374 247.971 16.1374C256.463 16.1374 258.386 14.2153 258.386 5.72888C258.386 14.2153 260.309 16.1374 268.801 16.1374C260.309 16.1374 258.386 18.0596 258.386 26.546Z" fill="white"/>
<path fill-rule="evenodd" clip-rule="evenodd" d="M235.016 123.414C235.016 114.892 233.093 113.006 224.601 113.006C233.093 113.006 235.016 111.084 235.016 102.597C235.016 111.084 236.903 113.006 245.431 113.006C236.903 113.006 235.016 114.892 235.016 123.414Z" fill="white"/>
<path fill-rule="evenodd" clip-rule="evenodd" d="M52.1957 195.367C52.1957 186.881 50.2725 184.959 41.781 184.959C50.2725 184.959 52.1957 183.037 52.1957 174.55C52.1957 183.037 54.119 184.959 62.6105 184.959C54.119 184.959 52.1957 186.881 52.1957 195.367Z" fill="white"/>
<path d="M160.117 59.9476C160.117 59.9476 165.234 64.5898 172.165 59.9476" stroke="#542A6F" stroke-width="4.93308" stroke-miterlimit="22.9256" stroke-linecap="round" stroke-linejoin="round"/>
<path d="M187.95 59.9476C187.95 59.9476 193.067 64.5898 199.998 59.9476" stroke="#542A6F" stroke-width="4.93308" stroke-miterlimit="22.9256" stroke-linecap="round" stroke-linejoin="round"/>
<path d="M174.451 79.314C174.451 79.314 179.568 74.7082 186.499 79.314" stroke="#542A6F" stroke-width="6.93298" stroke-miterlimit="22.9256" stroke-linecap="round" stroke-linejoin="round"/>
<path d="M181.999 64.5172C181.999 64.5172 182.144 67.7449 180.184 67.9625C178.225 68.2164 178.624 70.9727 181.418 70.8276" stroke="#542A6F" stroke-width="3.9998" stroke-miterlimit="22.9256" stroke-linecap="round" stroke-linejoin="round"/>
<path d="M224.855 167.188H225.581C226.96 167.188 228.484 167.225 228.484 168.893C228.484 169.981 227.831 170.779 226.488 170.779C225.182 170.779 224.529 170.09 224.311 169.074L221.045 169.836C221.662 172.447 223.694 173.607 226.307 173.607C229.21 173.607 231.605 172.157 231.605 169.219C231.605 167.515 230.589 166.028 228.847 165.81V165.738C230.444 165.411 231.351 164.142 231.351 162.546C231.351 159.717 228.992 158.448 226.379 158.448C223.912 158.448 221.807 159.427 221.154 161.966L224.601 162.691C224.783 161.93 225.436 161.313 226.416 161.313C227.432 161.313 228.23 161.966 228.23 162.836C228.23 164.251 227.032 164.468 225.871 164.468H224.855V167.188Z" fill="white"/>
<path d="M234.653 173.39H238.282L244.161 161.422V158.702H233.419V161.567H240.677L234.653 173.39Z" fill="white"/>
<path d="M255.446 169.509C255.446 171.794 257.297 173.607 259.547 173.607C261.797 173.607 263.611 171.794 263.611 169.509C263.611 167.225 261.797 165.411 259.547 165.411C257.297 165.411 255.446 167.225 255.446 169.509ZM261.506 169.509C261.506 170.634 260.635 171.504 259.547 171.504C258.458 171.504 257.587 170.634 257.587 169.509C257.587 168.385 258.458 167.515 259.547 167.515C260.635 167.515 261.506 168.385 261.506 169.509ZM245.031 162.546C245.031 164.831 246.846 166.644 249.132 166.644C251.382 166.644 253.196 164.831 253.196 162.546C253.196 160.298 251.382 158.448 249.132 158.448C246.846 158.448 245.031 160.298 245.031 162.546ZM251.092 162.546C251.092 163.67 250.221 164.541 249.132 164.541C248.007 164.541 247.136 163.67 247.136 162.546C247.136 161.458 248.007 160.588 249.132 160.588C250.221 160.588 251.092 161.458 251.092 162.546ZM249.277 173.136L250.874 174.043L259.402 159.028L257.66 158.049L249.277 173.136Z" fill="white"/>
<path d="M227.141 146.915C226.416 146.262 225.472 146.009 224.492 146.009C222.787 146.009 221.19 146.951 221.19 148.801C221.19 151.702 225.254 150.832 225.254 152.428C225.254 153.044 224.529 153.334 223.912 153.334C223.295 153.334 222.642 153.008 222.279 152.5L220.9 153.987C221.735 154.749 222.714 155.075 223.803 155.075C225.581 155.075 227.141 154.169 227.141 152.246C227.141 149.2 223.15 150.215 223.15 148.656C223.15 148.003 223.912 147.749 224.456 147.749C224.928 147.749 225.509 147.931 225.835 148.33L227.141 146.915Z" fill="white"/>
<path d="M230.226 154.858H232.149V147.894H234.617V146.226H227.758V147.894H230.226V154.858Z" fill="white"/>
<path d="M235.56 154.858H237.484V151.412H238.427L240.205 154.858H242.491L240.314 151.195C241.512 150.977 242.165 150.07 242.165 148.837C242.165 146.843 240.677 146.226 238.899 146.226H235.56V154.858ZM237.484 147.822H238.717C239.407 147.822 240.205 147.967 240.205 148.837C240.205 149.78 239.298 149.78 238.609 149.78H237.484V147.822Z" fill="white"/>
<path d="M243.544 154.858H249.64V153.117H245.467V151.34H249.205V149.563H245.467V147.967H249.422V146.226H243.544V154.858Z" fill="white"/>
<path d="M256.753 146.915C256.027 146.262 255.084 146.009 254.104 146.009C252.398 146.009 250.802 146.951 250.802 148.801C250.802 151.702 254.866 150.832 254.866 152.428C254.866 153.044 254.176 153.334 253.523 153.334C252.906 153.334 252.253 153.008 251.89 152.5L250.511 153.987C251.346 154.749 252.326 155.075 253.414 155.075C255.192 155.075 256.753 154.169 256.753 152.246C256.753 149.2 252.761 150.215 252.761 148.656C252.761 148.003 253.523 147.749 254.067 147.749C254.539 147.749 255.12 147.931 255.446 148.33L256.753 146.915Z" fill="white"/>
<path d="M263.756 146.915C263.03 146.262 262.087 146.009 261.107 146.009C259.402 146.009 257.805 146.951 257.805 148.801C257.805 151.702 261.869 150.832 261.869 152.428C261.869 153.044 261.18 153.334 260.527 153.334C259.91 153.334 259.256 153.008 258.894 152.5L257.515 153.987C258.349 154.749 259.329 155.075 260.418 155.075C262.232 155.075 263.756 154.169 263.756 152.246C263.756 149.2 259.801 150.215 259.801 148.656C259.801 148.003 260.527 147.749 261.071 147.749C261.543 147.749 262.123 147.931 262.45 148.33L263.756 146.915Z" fill="white"/>
<path d="M216.872 44.099C216.872 44.099 223.404 43.3737 222.025 51.1348" stroke="#454A84" stroke-width="3.9998" stroke-miterlimit="22.9256" stroke-linecap="round" stroke-linejoin="round"/>
<path d="M221.444 46.0575C221.444 46.0575 218.94 46.0938 218.36 50.6271" stroke="#454A84" stroke-width="3.9998" stroke-miterlimit="22.9256" stroke-linecap="round" stroke-linejoin="round"/>
<path d="M144.441 44.099C144.441 44.099 137.909 43.3737 139.288 51.1348" stroke="#454A84" stroke-width="3.9998" stroke-miterlimit="22.9256" stroke-linecap="round" stroke-linejoin="round"/>
<path d="M139.868 46.0575C139.868 46.0575 142.372 46.0938 142.953 50.6271" stroke="#454A84" stroke-width="3.9998" stroke-miterlimit="22.9256" stroke-linecap="round" stroke-linejoin="round"/>
<path fill-rule="evenodd" clip-rule="evenodd" d="M212.046 51.6063C212.046 51.6063 199.998 55.8857 187.878 39.9284C187.878 39.9284 180.003 59.8388 147.198 54.7615C147.198 54.7615 150.283 39.8559 152.787 35.6852C155.254 31.5508 183.813 34.2708 195.861 34.2708C207.945 34.2708 210.449 30.3903 212.046 51.6063Z" fill="#454A84"/>
<path fill-rule="evenodd" clip-rule="evenodd" d="M64.0984 106.949H66.2031V110.648H69.9045V112.752H66.2031V116.451H64.0984V112.752H60.397V110.648H64.0984V106.949Z" fill="#454A84"/>
<path fill-rule="evenodd" clip-rule="evenodd" d="M109.096 59.1135H111.201V62.8127H114.902V64.9162H111.201V68.5791H109.096V64.9162H105.431V62.8127H109.096V59.1135Z" fill="#454A84"/>
<path fill-rule="evenodd" clip-rule="evenodd" d="M269.526 115.907H271.631V119.57H275.332V121.674H271.631V125.373H269.526V121.674H265.861V119.57H269.526V115.907Z" fill="#454A84"/>
<path fill-rule="evenodd" clip-rule="evenodd" d="M86.3067 206.501H88.4114V210.164H92.1128V212.304H88.4114V215.967H86.3067V212.304H82.6416V210.164H86.3067V206.501Z" fill="#97DCF3"/>
<path fill-rule="evenodd" clip-rule="evenodd" d="M281.356 213.827H283.461V217.526H287.162V219.63H283.461V223.329H281.356V219.63H277.655V217.526H281.356V213.827Z" fill="#97DCF3"/>
<path fill-rule="evenodd" clip-rule="evenodd" d="M230.299 16.2463H232.44V19.9455H236.105V22.049H232.44V25.7482H230.299V22.049H226.634V19.9455H230.299V16.2463Z" fill="#97DCF3"/>
<path fill-rule="evenodd" clip-rule="evenodd" d="M76.4363 10.7338H78.541V14.433H82.2424V16.5364H78.541V20.2356H76.4363V16.5364H72.7349V14.433H76.4363V10.7338Z" fill="#97DCF3"/>
<path fill-rule="evenodd" clip-rule="evenodd" d="M353.715 85.552H355.82V89.2512H359.521V91.3547H355.82V95.0176H353.715V91.3547H350.014V89.2512H353.715V85.552Z" fill="#97DCF3"/>
<path fill-rule="evenodd" clip-rule="evenodd" d="M48.0952 235.696H50.1999V239.359H53.9013V241.499H50.1999V245.162H48.0952V241.499H44.3938V239.359H48.0952V235.696Z" fill="#97DCF3"/>
<path fill-rule="evenodd" clip-rule="evenodd" d="M4.22265 121.674H6.32737V125.337H9.99248V127.476H6.32737V131.139H4.22265V127.476H0.52124V125.337H4.22265V121.674Z" fill="#97DCF3"/>
<path fill-rule="evenodd" clip-rule="evenodd" d="M333.067 28.2869H335.172V31.9498H338.873V34.0895H335.172V37.7525H333.067V34.0895H329.366V31.9498H333.067V28.2869Z" fill="#97DCF3"/>
<path d="M83.6941 76.7392L94.9434 75.3248L111.201 98.1365L92.367 82.288L81.3716 83.7024L68.199 66.1493L83.6941 76.7392Z" fill="#542A6F"/>
<path d="M110.801 27.0175L121.071 31.9135L122.305 59.9114L115.083 36.3743L105.104 31.5871L103.58 9.68201L110.801 27.0175Z" fill="#542A6F"/>
<path d="M272.72 76.7392L261.434 75.3248L245.177 98.1365L264.047 82.288L275.042 83.7024L288.215 66.1493L272.72 76.7392Z" fill="#542A6F"/>
<path d="M245.576 27.0175L235.343 31.9135L234.109 59.9114L241.33 36.3743L251.31 31.5871L252.834 9.68201L245.576 27.0175Z" fill="#542A6F"/>
<path d="M195.389 80.946C197.654 80.946 199.49 79.1112 199.49 76.8479C199.49 74.5846 197.654 72.7498 195.389 72.7498C193.125 72.7498 191.289 74.5846 191.289 76.8479C191.289 79.1112 193.125 80.946 195.389 80.946Z" fill="#FDADB6"/>
<path d="M163.564 80.946C165.829 80.946 167.665 79.1112 167.665 76.8479C167.665 74.5846 165.829 72.7498 163.564 72.7498C161.3 72.7498 159.464 74.5846 159.464 76.8479C159.464 79.1112 161.3 80.946 163.564 80.946Z" fill="#FDADB6"/>
<path d="M159.972 59.9476C158.629 63.0303 158.629 63.0303 158.629 63.0303" stroke="#542A6F" stroke-width="3.9998" stroke-miterlimit="22.9256" stroke-linecap="round" stroke-linejoin="round"/>
<path d="M161.569 60.9631C161.097 62.0511 160.807 62.7765 160.625 63.2117" stroke="#542A6F" stroke-width="3.9998" stroke-miterlimit="22.9256" stroke-linecap="round" stroke-linejoin="round"/>
<path d="M163.238 61.616C162.948 62.2325 162.73 62.7402 162.585 63.1392" stroke="#542A6F" stroke-width="3.9998" stroke-miterlimit="22.9256" stroke-linecap="round" stroke-linejoin="round"/>
<path d="M200.034 59.9476C201.341 63.0303 201.341 63.0303 201.341 63.0303" stroke="#542A6F" stroke-width="3.9998" stroke-miterlimit="22.9256" stroke-linecap="round" stroke-linejoin="round"/>
<path d="M198.438 60.9631C198.873 62.0511 199.2 62.7765 199.381 63.2117" stroke="#542A6F" stroke-width="3.9998" stroke-miterlimit="22.9256" stroke-linecap="round" stroke-linejoin="round"/>
<path d="M196.768 61.616C197.022 62.2325 197.24 62.7402 197.421 63.1392" stroke="#542A6F" stroke-width="3.9998" stroke-miterlimit="22.9256" stroke-linecap="round" stroke-linejoin="round"/>
</g>
<defs>
<clipPath id="clip0_461_17951">
<rect width="359" height="312" fill="white" transform="translate(0.52124)"/>
</clipPath>
</defs>
</svg>
