<svg width="60" height="60" viewBox="0 0 60 60" fill="none" xmlns="http://www.w3.org/2000/svg">
<circle cx="30" cy="30" r="30" fill="#EAF5FE"/>
<path d="M18.5414 37.8029C18.5414 37.807 18.5414 37.8147 18.5367 37.8252C18.5385 37.8182 18.5396 37.8106 18.5414 37.8029ZM40.7754 38.7656C40.5825 38.7615 40.392 38.7217 40.2135 38.6484L36.8865 37.469L36.8619 37.459C36.7894 37.4287 36.7114 37.4136 36.6328 37.4145C36.5604 37.4145 36.4885 37.4276 36.4207 37.4531C36.3398 37.4836 35.6115 37.7572 34.8475 37.967C34.4332 38.0807 32.9912 38.4516 31.834 38.4516C28.8762 38.4516 26.1105 37.3148 24.0475 35.2506C23.0396 34.2489 22.2404 33.0573 21.6962 31.7446C21.152 30.432 20.8735 29.0245 20.877 27.6035C20.8769 26.8631 20.9567 26.1249 21.1148 25.4016C21.6299 23.0215 22.9939 20.8565 24.9557 19.3078C26.968 17.7293 29.4522 16.8726 32.0098 16.875C35.0689 16.875 37.9195 18.0469 40.0371 20.1668C42.0387 22.1748 43.1355 24.815 43.1268 27.6006C43.125 29.6705 42.507 31.6929 41.3514 33.4102L41.3402 33.4266L41.2969 33.4852C41.2869 33.4986 41.277 33.5115 41.2676 33.525L41.2588 33.5408C41.2355 33.5805 41.2144 33.6213 41.1955 33.6633L42.1178 36.941C42.1586 37.0762 42.1806 37.2164 42.1834 37.3576C42.1836 37.5426 42.1474 37.7258 42.0767 37.8967C42.006 38.0676 41.9023 38.223 41.7715 38.3538C41.6407 38.4845 41.4854 38.5882 41.3145 38.6589C41.1436 38.7296 40.9604 38.7659 40.7754 38.7656Z" fill="#2A9EF4" stroke="#86CBFF"/>
<path d="M32.5705 39.9253C32.51 39.8075 32.4248 39.7042 32.3207 39.6223C32.2167 39.5404 32.0963 39.4818 31.9676 39.4507C31.6289 39.361 31.234 39.3762 30.9322 39.354C28.083 39.1559 25.4018 37.9331 23.3842 35.9116C21.5905 34.1279 20.4247 31.8098 20.0625 29.3063C19.9805 28.7356 19.9805 28.5938 19.9805 28.5938C19.9804 28.4034 19.9224 28.2175 19.8141 28.0609C19.7059 27.9043 19.5525 27.7843 19.3743 27.717C19.1962 27.6497 19.0018 27.6382 18.817 27.6841C18.6322 27.73 18.4658 27.8311 18.3398 27.9739C18.3398 27.9739 17.8781 28.4766 17.6602 28.9811C17.0488 30.3896 16.7881 31.9254 16.9004 33.4567C17.0126 34.9881 17.4945 36.4694 18.3047 37.7737C18.457 38.0274 18.457 38.1446 18.423 38.4083C18.2631 39.235 17.983 40.6934 17.8371 41.4499C17.7888 41.6952 17.8068 41.9489 17.8892 42.185C17.9716 42.4211 18.1154 42.6309 18.3059 42.7928L18.3328 42.8157C18.5848 43.0158 18.897 43.1248 19.2187 43.1251C19.3997 43.1252 19.5789 43.0896 19.7461 43.0202L22.8814 41.8102C22.9894 41.7692 23.1086 41.7692 23.2166 41.8102C24.4512 42.2696 25.7361 42.5134 26.9537 42.5134C28.4708 42.5148 29.9695 42.1815 31.343 41.5372C31.6629 41.3872 32.1633 41.2243 32.4562 40.8856C32.5671 40.7543 32.637 40.5933 32.6573 40.4226C32.6777 40.2519 32.6475 40.079 32.5705 39.9253Z" fill="#2A9EF4" stroke="#86CBFF"/>
</svg>
