<svg width="60" height="60" viewBox="0 0 60 60" fill="none" xmlns="http://www.w3.org/2000/svg">
<circle cx="30" cy="30" r="30" fill="#EAF5FE"/>
<path d="M42.1229 23.3901L42.124 23.3926C42.1725 23.5063 42.1983 23.6284 42.2 23.752V30C42.2 30.252 42.0999 30.4936 41.9217 30.6718C41.7436 30.8499 41.5019 30.95 41.25 30.95C40.998 30.95 40.7564 30.8499 40.5782 30.6718C40.4001 30.4936 40.3 30.252 40.3 30V26.7625V26.0374L39.7877 26.5505L31.9252 34.4255L31.9245 34.4262C31.8362 34.5153 31.7311 34.586 31.6153 34.6342C31.4996 34.6824 31.3754 34.7072 31.25 34.7072C31.1246 34.7072 31.0004 34.6824 30.8846 34.6342C30.7689 34.586 30.6638 34.5153 30.5755 34.4262L30.5749 34.4257L26.4624 30.3007L26.2501 30.0877L26.0377 30.3006L19.4252 36.9256L19.4245 36.9262C19.3362 37.0153 19.2311 37.086 19.1153 37.1342C18.9996 37.1824 18.8754 37.2072 18.75 37.2072C18.6246 37.2072 18.5004 37.1824 18.3846 37.1342C18.2689 37.086 18.1638 37.0153 18.0755 36.9262L18.0737 36.9245C17.9847 36.8362 17.914 36.7311 17.8658 36.6153L17.5905 36.73L17.8658 36.6153C17.8176 36.4996 17.7927 36.3754 17.7927 36.25C17.7927 36.1246 17.8176 36.0004 17.8658 35.8847L17.5905 35.77L17.8658 35.8847C17.914 35.7689 17.9847 35.6638 18.0737 35.5755L18.0746 35.5746L25.5746 28.0746L25.5755 28.0738C25.6638 27.9847 25.7689 27.914 25.8846 27.8658C26.0004 27.8176 26.1246 27.7928 26.25 27.7928C26.3754 27.7928 26.4996 27.8176 26.6153 27.8658C26.7311 27.914 26.8362 27.9847 26.9245 28.0738L26.925 28.0743L31.0375 32.1993L31.2497 32.4121L31.4621 32.1996L38.4496 25.2121L38.9617 24.7H38.2375H35C34.748 24.7 34.5064 24.5999 34.3282 24.4218L34.1161 24.6339L34.3282 24.4218C34.1501 24.2436 34.05 24.002 34.05 23.75C34.05 23.498 34.1501 23.2564 34.3282 23.0782L34.1167 22.8667L34.3282 23.0782C34.5064 22.9001 34.748 22.8 35 22.8H41.248C41.3716 22.8017 41.4937 22.8275 41.6074 22.876L41.6074 22.876L41.6099 22.8771C41.8421 22.9735 42.0265 23.1579 42.1229 23.3901Z" fill="#2A9EF4" stroke="#86CBFF" stroke-width="0.6"/>
</svg>
