<svg width="60" height="61" viewBox="0 0 60 61" fill="none" xmlns="http://www.w3.org/2000/svg">
<circle cx="30" cy="30.5" r="30" fill="#EAF5FE"/>
<path fill-rule="evenodd" clip-rule="evenodd" d="M33.75 18H36.25C38.607 18 39.7855 18 40.5178 18.7322C41.25 19.4645 41.25 20.643 41.25 23V42.0625H42.5C43.0178 42.0625 43.4375 42.4822 43.4375 43C43.4375 43.5178 43.0178 43.9375 42.5 43.9375H17.5C16.9822 43.9375 16.5625 43.5178 16.5625 43C16.5625 42.4822 16.9822 42.0625 17.5 42.0625H18.75V26.75C18.75 24.393 18.75 23.2145 19.4822 22.4822C20.2145 21.75 21.393 21.75 23.75 21.75H28.75C31.107 21.75 32.2855 21.75 33.0178 22.4822C33.75 23.2145 33.75 24.393 33.75 26.75V42.0625H35.625V26.75L35.625 26.6381C35.6251 25.5561 35.6253 24.564 35.5168 23.757C35.3973 22.8683 35.1162 21.929 34.3436 21.1564C33.571 20.3838 32.6317 20.1027 31.743 19.9832C30.9474 19.8763 29.9718 19.8749 28.9075 19.875C29.0129 19.3909 29.1887 19.0257 29.4822 18.7322C30.2145 18 31.393 18 33.75 18ZM21.5625 25.5C21.5625 24.9822 21.9822 24.5625 22.5 24.5625H30C30.5178 24.5625 30.9375 24.9822 30.9375 25.5C30.9375 26.0178 30.5178 26.4375 30 26.4375H22.5C21.9822 26.4375 21.5625 26.0178 21.5625 25.5ZM21.5625 29.25C21.5625 28.7322 21.9822 28.3125 22.5 28.3125H30C30.5178 28.3125 30.9375 28.7322 30.9375 29.25C30.9375 29.7678 30.5178 30.1875 30 30.1875H22.5C21.9822 30.1875 21.5625 29.7678 21.5625 29.25ZM21.5625 33C21.5625 32.4822 21.9822 32.0625 22.5 32.0625H30C30.5178 32.0625 30.9375 32.4822 30.9375 33C30.9375 33.5178 30.5178 33.9375 30 33.9375H22.5C21.9822 33.9375 21.5625 33.5178 21.5625 33ZM26.25 38.3125C26.7678 38.3125 27.1875 38.7322 27.1875 39.25V42.0625H25.3125V39.25C25.3125 38.7322 25.7322 38.3125 26.25 38.3125Z" fill="#2A9EF4"/>
<path d="M40.5178 18.7322L40.1642 19.0858V19.0858L40.5178 18.7322ZM29.4822 18.7322L29.1287 18.3787L29.4822 18.7322ZM31.743 19.9832L31.6764 20.4788L31.743 19.9832ZM34.3436 21.1564L33.99 21.51V21.51L34.3436 21.1564ZM35.5168 23.757L36.0123 23.6904V23.6904L35.5168 23.757ZM28.9075 19.875L28.419 19.7686L28.2869 20.375L28.9076 20.375L28.9075 19.875ZM33.0178 22.4822L32.6642 22.8358L33.0178 22.4822ZM18.75 42.0625V42.5625H19.25V42.0625H18.75ZM25.3125 42.0625H24.8125V42.5625H25.3125V42.0625ZM27.1875 42.0625V42.5625H27.6875V42.0625H27.1875ZM33.75 42.0625H33.25V42.5625H33.75V42.0625ZM35.625 42.0625V42.5625H36.125V42.0625H35.625ZM41.25 42.0625H40.75V42.5625H41.25V42.0625ZM33.75 18.5H36.25V17.5H33.75V18.5ZM36.25 18.5C37.4426 18.5 38.2868 18.5011 38.9266 18.5871C39.5519 18.6711 39.9065 18.8281 40.1642 19.0858L40.8713 18.3787C40.3968 17.9042 39.796 17.695 39.0598 17.596C38.338 17.4989 37.4144 17.5 36.25 17.5V18.5ZM41.75 23C41.75 21.8356 41.7511 20.912 41.654 20.1902C41.555 19.454 41.3458 18.8532 40.8713 18.3787L40.1642 19.0858C40.4219 19.3435 40.5789 19.6981 40.6629 20.3234C40.7489 20.9632 40.75 21.8074 40.75 23H41.75ZM33.75 17.5C32.5856 17.5 31.662 17.4989 30.9402 17.596C30.204 17.695 29.6032 17.9042 29.1287 18.3787L29.8358 19.0858C30.0935 18.8281 30.4481 18.6711 31.0734 18.5871C31.7132 18.5011 32.5574 18.5 33.75 18.5V17.5ZM34.6971 20.8029C33.816 19.9217 32.7534 19.6146 31.8096 19.4877L31.6764 20.4788C32.5101 20.5909 33.3261 20.846 33.99 21.51L34.6971 20.8029ZM36.0123 23.6904C35.8854 22.7466 35.5783 21.684 34.6971 20.8029L33.99 21.51C34.654 22.1739 34.9091 22.9899 35.0212 23.8236L36.0123 23.6904ZM36.125 26.6382C36.1251 25.5673 36.1262 24.5378 36.0123 23.6904L35.0212 23.8236C35.1243 24.5903 35.1251 25.5449 35.125 26.6381L36.125 26.6382ZM36.125 26.75C36.125 26.7126 36.125 26.6754 36.125 26.6382L35.125 26.6381C35.125 26.6753 35.125 26.7126 35.125 26.75H36.125ZM31.8096 19.4877C30.9739 19.3753 29.9615 19.3749 28.9075 19.375L28.9076 20.375C29.9822 20.3749 30.9208 20.3772 31.6764 20.4788L31.8096 19.4877ZM29.3961 19.9813C29.487 19.5634 29.6275 19.2941 29.8358 19.0858L29.1287 18.3787C28.75 18.7574 28.5387 19.2184 28.419 19.7686L29.3961 19.9813ZM36.125 26.75L36.125 26.6382L35.125 26.6381L35.125 26.75L36.125 26.75ZM23.75 22.25H28.75V21.25H23.75V22.25ZM28.75 22.25C29.9426 22.25 30.7868 22.2511 31.4266 22.3371C32.0519 22.4211 32.4065 22.5781 32.6642 22.8358L33.3713 22.1287C32.8968 21.6542 32.296 21.445 31.5598 21.346C30.838 21.2489 29.9144 21.25 28.75 21.25V22.25ZM34.25 26.75C34.25 25.5856 34.2511 24.662 34.154 23.9402C34.055 23.204 33.8458 22.6032 33.3713 22.1287L32.6642 22.8358C32.9219 23.0935 33.0789 23.4481 33.1629 24.0734C33.2489 24.7132 33.25 25.5574 33.25 26.75H34.25ZM23.75 21.25C22.5856 21.25 21.662 21.2489 20.9402 21.346C20.204 21.445 19.6032 21.6542 19.1287 22.1287L19.8358 22.8358C20.0935 22.5781 20.4481 22.4211 21.0734 22.3371C21.7132 22.2511 22.5574 22.25 23.75 22.25V21.25ZM19.25 26.75C19.25 25.5574 19.2511 24.7132 19.3371 24.0734C19.4211 23.4481 19.5781 23.0935 19.8358 22.8358L19.1287 22.1287C18.6542 22.6032 18.445 23.204 18.346 23.9402C18.2489 24.662 18.25 25.5856 18.25 26.75H19.25ZM22.5 24.0625C21.7061 24.0625 21.0625 24.7061 21.0625 25.5H22.0625C22.0625 25.2584 22.2584 25.0625 22.5 25.0625V24.0625ZM30 24.0625H22.5V25.0625H30V24.0625ZM31.4375 25.5C31.4375 24.7061 30.7939 24.0625 30 24.0625V25.0625C30.2416 25.0625 30.4375 25.2584 30.4375 25.5H31.4375ZM30 26.9375C30.7939 26.9375 31.4375 26.2939 31.4375 25.5H30.4375C30.4375 25.7416 30.2416 25.9375 30 25.9375V26.9375ZM22.5 26.9375H30V25.9375H22.5V26.9375ZM21.0625 25.5C21.0625 26.2939 21.7061 26.9375 22.5 26.9375V25.9375C22.2584 25.9375 22.0625 25.7416 22.0625 25.5H21.0625ZM22.5 27.8125C21.7061 27.8125 21.0625 28.4561 21.0625 29.25H22.0625C22.0625 29.0084 22.2584 28.8125 22.5 28.8125V27.8125ZM30 27.8125H22.5V28.8125H30V27.8125ZM31.4375 29.25C31.4375 28.4561 30.7939 27.8125 30 27.8125V28.8125C30.2416 28.8125 30.4375 29.0084 30.4375 29.25H31.4375ZM30 30.6875C30.7939 30.6875 31.4375 30.0439 31.4375 29.25H30.4375C30.4375 29.4916 30.2416 29.6875 30 29.6875V30.6875ZM22.5 30.6875H30V29.6875H22.5V30.6875ZM21.0625 29.25C21.0625 30.0439 21.7061 30.6875 22.5 30.6875V29.6875C22.2584 29.6875 22.0625 29.4916 22.0625 29.25H21.0625ZM22.5 31.5625C21.7061 31.5625 21.0625 32.2061 21.0625 33H22.0625C22.0625 32.7584 22.2584 32.5625 22.5 32.5625V31.5625ZM30 31.5625H22.5V32.5625H30V31.5625ZM31.4375 33C31.4375 32.2061 30.7939 31.5625 30 31.5625V32.5625C30.2416 32.5625 30.4375 32.7584 30.4375 33H31.4375ZM30 34.4375C30.7939 34.4375 31.4375 33.7939 31.4375 33H30.4375C30.4375 33.2416 30.2416 33.4375 30 33.4375V34.4375ZM22.5 34.4375H30V33.4375H22.5V34.4375ZM21.0625 33C21.0625 33.7939 21.7061 34.4375 22.5 34.4375V33.4375C22.2584 33.4375 22.0625 33.2416 22.0625 33H21.0625ZM27.6875 39.25C27.6875 38.4561 27.0439 37.8125 26.25 37.8125V38.8125C26.4916 38.8125 26.6875 39.0084 26.6875 39.25H27.6875ZM26.25 37.8125C25.4561 37.8125 24.8125 38.4561 24.8125 39.25H25.8125C25.8125 39.0084 26.0084 38.8125 26.25 38.8125V37.8125ZM17.5 41.5625C16.7061 41.5625 16.0625 42.2061 16.0625 43H17.0625C17.0625 42.7584 17.2584 42.5625 17.5 42.5625V41.5625ZM43.9375 43C43.9375 42.2061 43.2939 41.5625 42.5 41.5625V42.5625C42.7416 42.5625 42.9375 42.7584 42.9375 43H43.9375ZM42.5 44.4375C43.2939 44.4375 43.9375 43.7939 43.9375 43H42.9375C42.9375 43.2416 42.7416 43.4375 42.5 43.4375V44.4375ZM17.5 44.4375H42.5V43.4375H17.5V44.4375ZM16.0625 43C16.0625 43.7939 16.7061 44.4375 17.5 44.4375V43.4375C17.2584 43.4375 17.0625 43.2416 17.0625 43H16.0625ZM18.75 41.5625H17.5V42.5625H18.75V41.5625ZM19.25 42.0625V26.75H18.25V42.0625H19.25ZM24.8125 39.25V42.0625H25.8125V39.25H24.8125ZM27.1875 41.5625H25.3125V42.5625H27.1875V41.5625ZM27.6875 42.0625V39.25H26.6875V42.0625H27.6875ZM33.25 26.75V42.0625H34.25V26.75H33.25ZM35.625 41.5625H33.75V42.5625H35.625V41.5625ZM36.125 42.0625V26.75H35.125V42.0625H36.125ZM42.5 41.5625H41.25V42.5625H42.5V41.5625ZM40.75 23V42.0625H41.75V23H40.75Z" fill="#86CBFF"/>
</svg>
