<svg width="81" height="80" viewBox="0 0 81 80" fill="none" xmlns="http://www.w3.org/2000/svg">
<rect x="0.5" width="80" height="80" rx="16" fill="#EAF5FE"/>
<path d="M51.9283 25.8083L49.0717 27.525L53.8333 35.4617V46.6667H52.1667V43.3333C52.1667 42.4493 51.8155 41.6014 51.1904 40.9763C50.5652 40.3512 49.7174 40 48.8333 40H47.1667V25H27.1667V51.6667H25.5V55H48.8333V51.6667H47.1667V43.3333H48.8333V46.6667C48.8333 47.5507 49.1845 48.3986 49.8096 49.0237C50.4348 49.6488 51.2826 50 52.1667 50H53.8333C54.7174 50 55.5652 49.6488 56.1904 49.0237C56.8155 48.3986 57.1667 47.5507 57.1667 46.6667V34.5383L51.9283 25.8083ZM43.8333 51.6667H30.5V35H43.8333V51.6667ZM43.8333 31.6667H30.5V28.3333H43.8333V31.6667Z" fill="#2A9EF4"/>
<path d="M37.166 50C38.4712 49.9354 39.7058 49.3879 40.6299 48.4638C41.5539 47.5398 42.1014 46.3052 42.166 45C42.166 42.8733 39.4993 39.97 38.3443 38.8216L37.166 37.6433L35.9877 38.8216C34.8327 39.97 32.166 42.8733 32.166 45C32.2306 46.3052 32.7781 47.5398 33.7022 48.4638C34.6262 49.3879 35.8608 49.9354 37.166 50ZM37.166 42.4666C37.8709 43.2028 38.4357 44.0612 38.8327 45C38.7751 45.4217 38.5809 45.813 38.28 46.1139C37.979 46.4149 37.5877 46.609 37.166 46.6666C36.7486 46.61 36.3607 46.4198 36.0603 46.1245C35.7599 45.8292 35.5631 45.4447 35.4993 45.0283C35.8906 44.0781 36.4558 43.2093 37.166 42.4666Z" fill="#2A9EF4"/>
</svg>
