<svg width="81" height="80" viewBox="0 0 81 80" fill="none" xmlns="http://www.w3.org/2000/svg">
<rect x="0.5" width="80" height="80" rx="16" fill="#EAF5FE"/>
<path d="M35.5 31.6667H33.8333V25H30.5V31.6667H28.8333V25H25.5V36.6667C25.5 37.5507 25.8512 38.3986 26.4763 39.0237C27.1014 39.6488 27.9493 40 28.8333 40H30.5V55H33.8333V40H35.5C36.3841 40 37.2319 39.6488 37.857 39.0237C38.4821 38.3986 38.8333 37.5507 38.8333 36.6667V25H35.5V31.6667ZM28.8333 36.6667V35H35.5V36.6667H28.8333Z" fill="#2A9EF4"/>
<path d="M51.4667 23.9817C50.7829 23.7699 50.0489 23.7853 49.3747 24.0257C48.7004 24.266 48.1222 24.7184 47.7267 25.315L45.9133 28.0433C44.584 30.04 43.7519 32.326 43.4867 34.71L42.3833 44.635C42.332 45.1006 42.3794 45.5717 42.5225 46.0178C42.6655 46.4638 42.9009 46.8747 43.2134 47.2236C43.5258 47.5726 43.9083 47.8518 44.3359 48.043C44.7635 48.2342 45.2266 48.3331 45.695 48.3333H50.5V55H53.8333V27.1667C53.8354 26.4515 53.6061 25.7548 53.1795 25.1807C52.7529 24.6066 52.1521 24.186 51.4667 23.9817ZM50.5 45H45.695L46.7983 35.075C47.0056 33.2214 47.6531 31.4442 48.6867 29.8917L50.5 27.1667V45Z" fill="#2A9EF4"/>
</svg>
