<svg width="81" height="80" viewBox="0 0 81 80" fill="none" xmlns="http://www.w3.org/2000/svg">
<rect x="0.5" width="80" height="80" rx="16" fill="#EAF5FE"/>
<path d="M32.7657 55.72C32.2308 55.7156 31.7047 55.5831 31.2315 55.3336C30.7583 55.0842 30.3518 54.725 30.0458 54.2862C29.7398 53.8475 29.5434 53.3418 29.4729 52.8115C29.4025 52.2813 29.46 51.7418 29.6407 51.2384L32.9857 43.3334H24.4707L34.4707 23.3334H53.614L46.9474 33.3334H56.139L35.099 54.7634C34.4723 55.369 33.6372 55.7114 32.7657 55.72ZM29.864 40H38.0157L32.7424 52.4584L48.2024 36.6667H40.719L47.3857 26.6667H36.5307L29.864 40Z" fill="#2A9EF4"/>
</svg>
