<svg width="81" height="80" viewBox="0 0 81 80" fill="none" xmlns="http://www.w3.org/2000/svg">
<rect x="0.5" width="80" height="80" rx="16" fill="#EAF5FE"/>
<mask id="path-2-inside-1_58_6189" fill="white">
<path d="M53.5424 31.6749C53.735 31.1375 53.8331 30.5708 53.8324 29.9999C53.8324 28.6739 53.3056 27.4021 52.3679 26.4644C51.4302 25.5267 50.1584 24.9999 48.8324 24.9999C47.7434 25.0014 46.6853 25.3623 45.8224 26.0266C45.2085 25.1915 44.4069 24.5125 43.4821 24.0446C42.5573 23.5766 41.5355 23.3328 40.499 23.3328C39.4626 23.3328 38.4407 23.5766 37.516 24.0446C36.5912 24.5125 35.7895 25.1915 35.1757 26.0266C34.3128 25.3623 33.2547 25.0014 32.1657 24.9999C30.8396 24.9999 29.5678 25.5267 28.6302 26.4644C27.6925 27.4021 27.1657 28.6739 27.1657 29.9999C27.1659 30.568 27.264 31.1318 27.4557 31.6666C26.1296 31.6282 24.8426 32.1181 23.8777 33.0285C22.9128 33.939 22.3492 35.1955 22.3107 36.5216C22.2722 37.8477 22.7621 39.1347 23.6726 40.0996C24.5831 41.0645 25.8396 41.6282 27.1657 41.6666C27.8869 41.6629 28.5986 41.5014 29.2507 41.1933C29.8407 41.6316 30.584 42.1299 31.3507 42.6549C32.8479 43.5561 34.2393 44.6222 35.499 45.8333C35.114 48.6682 34.5653 51.4784 33.8557 54.2499C33.8379 54.3219 33.83 54.3959 33.8324 54.4699C33.874 55.8199 36.1107 56.5049 40.4757 56.5099H40.5224C44.8874 56.5099 47.124 55.8199 47.1657 54.4699C47.168 54.3959 47.1602 54.3219 47.1424 54.2499C46.4456 51.5085 45.8926 48.7325 45.4857 45.9333C46.6173 44.7714 47.8985 43.7653 49.2957 42.9416C50.2257 42.3116 51.1007 41.7166 51.7574 41.1983C52.4069 41.503 53.1149 41.6628 53.8324 41.6666C54.5011 41.6664 55.1629 41.5321 55.7788 41.2716C56.3947 41.0111 56.952 40.6297 57.4179 40.15C57.8837 39.6702 58.2486 39.102 58.491 38.4787C58.7333 37.8555 58.8482 37.19 58.8288 36.5215C58.8094 35.8531 58.6561 35.1954 58.378 34.5873C58.0999 33.9791 57.7027 33.433 57.2098 32.9811C56.7169 32.5292 56.1384 32.1808 55.5084 31.9564C54.8785 31.7321 54.2099 31.6364 53.5424 31.6749ZM48.3607 41.5616C45.2124 43.6949 43.8324 44.7433 43.8324 45.8333C44.186 48.66 44.717 51.4616 45.4224 54.2216C43.8446 54.7786 42.1658 54.9912 40.499 54.8449C38.8322 54.9912 37.1535 54.7786 35.5757 54.2216C36.281 51.4616 36.8121 48.66 37.1657 45.8333C37.1657 44.6933 35.6774 43.5683 32.284 41.2733C31.714 40.8883 31.174 40.5199 30.699 40.1833C31.3128 39.5705 31.7572 38.809 31.989 37.9733C32.1257 38.0283 32.269 38.0583 32.409 38.0999C34.6374 41.0899 36.349 42.5999 37.5057 42.5999C37.6284 42.6007 37.7505 42.5822 37.8674 42.5449C38.3007 42.4033 38.8207 41.9933 38.8324 40.8349C38.8557 38.6149 38.849 37.1683 38.8407 36.4116C39.9269 36.7041 41.0712 36.7041 42.1574 36.4116C42.1574 37.1599 42.1424 38.6149 42.1657 40.8349C42.1774 41.9933 42.6974 42.4033 43.1307 42.5449C43.2476 42.5822 43.3697 42.6007 43.4924 42.5999C44.649 42.5999 46.3607 41.0833 48.589 38.0999C48.7274 38.0583 48.8707 38.0299 49.0057 37.9749C49.2393 38.8202 49.6918 39.5888 50.3174 40.2033C49.7607 40.6133 49.0757 41.0766 48.3607 41.5616ZM37.179 36.9999C37.179 37.8183 37.179 39.0699 37.1657 40.7916C36.2206 40.0406 35.3689 39.1788 34.629 38.2249C35.5764 38.0618 36.4596 37.6376 37.179 36.9999ZM43.8324 40.7966C43.814 39.0733 43.8157 37.8216 43.819 37.0033C44.5389 37.6407 45.4217 38.0654 46.369 38.2299C45.6286 39.1834 44.7771 40.0451 43.8324 40.7966ZM53.8324 39.9999C53.3929 40 52.9578 39.9131 52.5521 39.7443C52.1464 39.5755 51.778 39.3282 51.4682 39.0166C51.1585 38.7049 50.9133 38.3351 50.747 37.9284C50.5807 37.5216 50.4964 37.086 50.499 36.6466C50.499 36.4918 50.4559 36.3401 50.3746 36.2085C50.2932 36.0769 50.1768 35.9705 50.0384 35.9013C49.9 35.832 49.745 35.8027 49.5909 35.8166C49.4367 35.8305 49.2895 35.8871 49.1657 35.9799C48.7641 36.2684 48.3042 36.4654 47.8184 36.5572C47.3325 36.649 46.8325 36.6334 46.3533 36.5114C45.8742 36.3895 45.4275 36.1641 45.0447 35.8511C44.6619 35.5382 44.3522 35.1453 44.1374 34.6999C44.0897 34.5946 44.0206 34.5004 43.9345 34.4232C43.8484 34.346 43.7472 34.2876 43.6374 34.2516C43.5277 34.2154 43.4116 34.2028 43.2967 34.2146C43.1818 34.2263 43.0707 34.2622 42.9707 34.3199C42.2249 34.7617 41.3741 34.9948 40.5074 34.9948C39.6406 34.9948 38.7898 34.7617 38.044 34.3199C37.9435 34.2634 37.8324 34.2283 37.7176 34.2169C37.6028 34.2055 37.4869 34.2181 37.3773 34.2538C37.2676 34.2895 37.1666 34.3476 37.0805 34.4244C36.9945 34.5012 36.9253 34.595 36.8774 34.6999C36.6631 35.148 36.3529 35.5434 35.9689 35.8583C35.5848 36.1731 35.1363 36.3997 34.655 36.522C34.1736 36.6443 33.6713 36.6593 33.1835 36.5659C32.6958 36.4725 32.2345 36.273 31.8324 35.9816C31.7078 35.8897 31.5601 35.8344 31.4059 35.8217C31.2516 35.8091 31.0969 35.8396 30.959 35.9099C30.8201 35.9815 30.7036 36.09 30.6225 36.2235C30.5413 36.357 30.4986 36.5104 30.499 36.6666C30.499 37.3259 30.3035 37.9703 29.9373 38.5185C29.571 39.0667 29.0504 39.4939 28.4413 39.7462C27.8322 39.9985 27.162 40.0645 26.5154 39.9359C25.8688 39.8073 25.2749 39.4898 24.8087 39.0236C24.3425 38.5575 24.025 37.9635 23.8964 37.3169C23.7678 36.6703 23.8338 36.0001 24.0861 35.391C24.3384 34.7819 24.7656 34.2613 25.3138 33.895C25.862 33.5288 26.5064 33.3333 27.1657 33.3333C27.8895 33.3355 28.5925 33.5762 29.1657 34.0183C29.2912 34.1091 29.4396 34.1632 29.5942 34.1744C29.7488 34.1856 29.9034 34.1535 30.0407 34.0816C30.1796 34.008 30.2957 33.8979 30.3765 33.763C30.4573 33.6282 30.4997 33.4738 30.499 33.3166C30.499 33.1872 30.4689 33.0596 30.4111 32.9439C30.3532 32.8282 30.2692 32.7276 30.1657 32.6499C29.789 32.3699 29.4759 32.0131 29.2472 31.6031C29.0185 31.1932 28.8793 30.7394 28.8389 30.2717C28.7984 29.804 28.8576 29.3331 29.0126 28.8899C29.1675 28.4468 29.4146 28.0416 29.7377 27.701C30.0607 27.3603 30.4523 27.0921 30.8866 26.914C31.3209 26.7358 31.7881 26.6518 32.2573 26.6675C32.7264 26.6831 33.1869 26.7981 33.6084 27.0048C34.0299 27.2115 34.4027 27.5052 34.7024 27.8666C34.7905 27.9717 34.9032 28.0535 35.0305 28.1046C35.1578 28.1557 35.2958 28.1746 35.4321 28.1596C35.5685 28.1446 35.699 28.0961 35.8121 28.0186C35.9253 27.941 36.0175 27.8367 36.0807 27.7149C36.4948 26.8993 37.1267 26.2143 37.9062 25.7358C38.6858 25.2573 39.5827 25.0041 40.4974 25.0041C41.4121 25.0041 42.3089 25.2573 43.0885 25.7358C43.8681 26.2143 44.4999 26.8993 44.914 27.7149C44.9771 27.8367 45.0693 27.9411 45.1824 28.0187C45.2955 28.0964 45.426 28.1449 45.5624 28.1599C45.6988 28.1749 45.8368 28.156 45.9642 28.1048C46.0915 28.0537 46.2043 27.9718 46.2924 27.8666C46.5934 27.5099 46.9662 27.2208 47.3866 27.018C47.8069 26.8153 48.2653 26.7034 48.7318 26.6899C49.1983 26.6763 49.6624 26.7613 50.0938 26.9393C50.5253 27.1173 50.9143 27.3843 51.2355 27.7228C51.5568 28.0614 51.8029 28.4639 51.958 28.9041C52.1131 29.3442 52.1736 29.8122 52.1356 30.2773C52.0975 30.7425 51.9618 31.1944 51.7372 31.6035C51.5127 32.0126 51.2043 32.3698 50.8324 32.6516C50.7282 32.7365 50.6442 32.8435 50.5866 32.9649C50.5289 33.0862 50.499 33.2189 50.499 33.3533C50.499 33.508 50.5421 33.6597 50.6235 33.7914C50.7049 33.923 50.8213 34.0294 50.9597 34.0986C51.0981 34.1678 51.2531 34.1971 51.4072 34.1832C51.5613 34.1693 51.7086 34.1128 51.8324 34.0199C52.4054 33.5773 53.1083 33.336 53.8324 33.3333C54.7164 33.3333 55.5643 33.6845 56.1894 34.3096C56.8145 34.9347 57.1657 35.7826 57.1657 36.6666C57.1657 37.5507 56.8145 38.3985 56.1894 39.0236C55.5643 39.6488 54.7164 39.9999 53.8324 39.9999Z"/>
</mask>
<path d="M53.5424 31.6749C53.735 31.1375 53.8331 30.5708 53.8324 29.9999C53.8324 28.6739 53.3056 27.4021 52.3679 26.4644C51.4302 25.5267 50.1584 24.9999 48.8324 24.9999C47.7434 25.0014 46.6853 25.3623 45.8224 26.0266C45.2085 25.1915 44.4069 24.5125 43.4821 24.0446C42.5573 23.5766 41.5355 23.3328 40.499 23.3328C39.4626 23.3328 38.4407 23.5766 37.516 24.0446C36.5912 24.5125 35.7895 25.1915 35.1757 26.0266C34.3128 25.3623 33.2547 25.0014 32.1657 24.9999C30.8396 24.9999 29.5678 25.5267 28.6302 26.4644C27.6925 27.4021 27.1657 28.6739 27.1657 29.9999C27.1659 30.568 27.264 31.1318 27.4557 31.6666C26.1296 31.6282 24.8426 32.1181 23.8777 33.0285C22.9128 33.939 22.3492 35.1955 22.3107 36.5216C22.2722 37.8477 22.7621 39.1347 23.6726 40.0996C24.5831 41.0645 25.8396 41.6282 27.1657 41.6666C27.8869 41.6629 28.5986 41.5014 29.2507 41.1933C29.8407 41.6316 30.584 42.1299 31.3507 42.6549C32.8479 43.5561 34.2393 44.6222 35.499 45.8333C35.114 48.6682 34.5653 51.4784 33.8557 54.2499C33.8379 54.3219 33.83 54.3959 33.8324 54.4699C33.874 55.8199 36.1107 56.5049 40.4757 56.5099H40.5224C44.8874 56.5099 47.124 55.8199 47.1657 54.4699C47.168 54.3959 47.1602 54.3219 47.1424 54.2499C46.4456 51.5085 45.8926 48.7325 45.4857 45.9333C46.6173 44.7714 47.8985 43.7653 49.2957 42.9416C50.2257 42.3116 51.1007 41.7166 51.7574 41.1983C52.4069 41.503 53.1149 41.6628 53.8324 41.6666C54.5011 41.6664 55.1629 41.5321 55.7788 41.2716C56.3947 41.0111 56.952 40.6297 57.4179 40.15C57.8837 39.6702 58.2486 39.102 58.491 38.4787C58.7333 37.8555 58.8482 37.19 58.8288 36.5215C58.8094 35.8531 58.6561 35.1954 58.378 34.5873C58.0999 33.9791 57.7027 33.433 57.2098 32.9811C56.7169 32.5292 56.1384 32.1808 55.5084 31.9564C54.8785 31.7321 54.2099 31.6364 53.5424 31.6749ZM48.3607 41.5616C45.2124 43.6949 43.8324 44.7433 43.8324 45.8333C44.186 48.66 44.717 51.4616 45.4224 54.2216C43.8446 54.7786 42.1658 54.9912 40.499 54.8449C38.8322 54.9912 37.1535 54.7786 35.5757 54.2216C36.281 51.4616 36.8121 48.66 37.1657 45.8333C37.1657 44.6933 35.6774 43.5683 32.284 41.2733C31.714 40.8883 31.174 40.5199 30.699 40.1833C31.3128 39.5705 31.7572 38.809 31.989 37.9733C32.1257 38.0283 32.269 38.0583 32.409 38.0999C34.6374 41.0899 36.349 42.5999 37.5057 42.5999C37.6284 42.6007 37.7505 42.5822 37.8674 42.5449C38.3007 42.4033 38.8207 41.9933 38.8324 40.8349C38.8557 38.6149 38.849 37.1683 38.8407 36.4116C39.9269 36.7041 41.0712 36.7041 42.1574 36.4116C42.1574 37.1599 42.1424 38.6149 42.1657 40.8349C42.1774 41.9933 42.6974 42.4033 43.1307 42.5449C43.2476 42.5822 43.3697 42.6007 43.4924 42.5999C44.649 42.5999 46.3607 41.0833 48.589 38.0999C48.7274 38.0583 48.8707 38.0299 49.0057 37.9749C49.2393 38.8202 49.6918 39.5888 50.3174 40.2033C49.7607 40.6133 49.0757 41.0766 48.3607 41.5616ZM37.179 36.9999C37.179 37.8183 37.179 39.0699 37.1657 40.7916C36.2206 40.0406 35.3689 39.1788 34.629 38.2249C35.5764 38.0618 36.4596 37.6376 37.179 36.9999ZM43.8324 40.7966C43.814 39.0733 43.8157 37.8216 43.819 37.0033C44.5389 37.6407 45.4217 38.0654 46.369 38.2299C45.6286 39.1834 44.7771 40.0451 43.8324 40.7966ZM53.8324 39.9999C53.3929 40 52.9578 39.9131 52.5521 39.7443C52.1464 39.5755 51.778 39.3282 51.4682 39.0166C51.1585 38.7049 50.9133 38.3351 50.747 37.9284C50.5807 37.5216 50.4964 37.086 50.499 36.6466C50.499 36.4918 50.4559 36.3401 50.3746 36.2085C50.2932 36.0769 50.1768 35.9705 50.0384 35.9013C49.9 35.832 49.745 35.8027 49.5909 35.8166C49.4367 35.8305 49.2895 35.8871 49.1657 35.9799C48.7641 36.2684 48.3042 36.4654 47.8184 36.5572C47.3325 36.649 46.8325 36.6334 46.3533 36.5114C45.8742 36.3895 45.4275 36.1641 45.0447 35.8511C44.6619 35.5382 44.3522 35.1453 44.1374 34.6999C44.0897 34.5946 44.0206 34.5004 43.9345 34.4232C43.8484 34.346 43.7472 34.2876 43.6374 34.2516C43.5277 34.2154 43.4116 34.2028 43.2967 34.2146C43.1818 34.2263 43.0707 34.2622 42.9707 34.3199C42.2249 34.7617 41.3741 34.9948 40.5074 34.9948C39.6406 34.9948 38.7898 34.7617 38.044 34.3199C37.9435 34.2634 37.8324 34.2283 37.7176 34.2169C37.6028 34.2055 37.4869 34.2181 37.3773 34.2538C37.2676 34.2895 37.1666 34.3476 37.0805 34.4244C36.9945 34.5012 36.9253 34.595 36.8774 34.6999C36.6631 35.148 36.3529 35.5434 35.9689 35.8583C35.5848 36.1731 35.1363 36.3997 34.655 36.522C34.1736 36.6443 33.6713 36.6593 33.1835 36.5659C32.6958 36.4725 32.2345 36.273 31.8324 35.9816C31.7078 35.8897 31.5601 35.8344 31.4059 35.8217C31.2516 35.8091 31.0969 35.8396 30.959 35.9099C30.8201 35.9815 30.7036 36.09 30.6225 36.2235C30.5413 36.357 30.4986 36.5104 30.499 36.6666C30.499 37.3259 30.3035 37.9703 29.9373 38.5185C29.571 39.0667 29.0504 39.4939 28.4413 39.7462C27.8322 39.9985 27.162 40.0645 26.5154 39.9359C25.8688 39.8073 25.2749 39.4898 24.8087 39.0236C24.3425 38.5575 24.025 37.9635 23.8964 37.3169C23.7678 36.6703 23.8338 36.0001 24.0861 35.391C24.3384 34.7819 24.7656 34.2613 25.3138 33.895C25.862 33.5288 26.5064 33.3333 27.1657 33.3333C27.8895 33.3355 28.5925 33.5762 29.1657 34.0183C29.2912 34.1091 29.4396 34.1632 29.5942 34.1744C29.7488 34.1856 29.9034 34.1535 30.0407 34.0816C30.1796 34.008 30.2957 33.8979 30.3765 33.763C30.4573 33.6282 30.4997 33.4738 30.499 33.3166C30.499 33.1872 30.4689 33.0596 30.4111 32.9439C30.3532 32.8282 30.2692 32.7276 30.1657 32.6499C29.789 32.3699 29.4759 32.0131 29.2472 31.6031C29.0185 31.1932 28.8793 30.7394 28.8389 30.2717C28.7984 29.804 28.8576 29.3331 29.0126 28.8899C29.1675 28.4468 29.4146 28.0416 29.7377 27.701C30.0607 27.3603 30.4523 27.0921 30.8866 26.914C31.3209 26.7358 31.7881 26.6518 32.2573 26.6675C32.7264 26.6831 33.1869 26.7981 33.6084 27.0048C34.0299 27.2115 34.4027 27.5052 34.7024 27.8666C34.7905 27.9717 34.9032 28.0535 35.0305 28.1046C35.1578 28.1557 35.2958 28.1746 35.4321 28.1596C35.5685 28.1446 35.699 28.0961 35.8121 28.0186C35.9253 27.941 36.0175 27.8367 36.0807 27.7149C36.4948 26.8993 37.1267 26.2143 37.9062 25.7358C38.6858 25.2573 39.5827 25.0041 40.4974 25.0041C41.4121 25.0041 42.3089 25.2573 43.0885 25.7358C43.8681 26.2143 44.4999 26.8993 44.914 27.7149C44.9771 27.8367 45.0693 27.9411 45.1824 28.0187C45.2955 28.0964 45.426 28.1449 45.5624 28.1599C45.6988 28.1749 45.8368 28.156 45.9642 28.1048C46.0915 28.0537 46.2043 27.9718 46.2924 27.8666C46.5934 27.5099 46.9662 27.2208 47.3866 27.018C47.8069 26.8153 48.2653 26.7034 48.7318 26.6899C49.1983 26.6763 49.6624 26.7613 50.0938 26.9393C50.5253 27.1173 50.9143 27.3843 51.2355 27.7228C51.5568 28.0614 51.8029 28.4639 51.958 28.9041C52.1131 29.3442 52.1736 29.8122 52.1356 30.2773C52.0975 30.7425 51.9618 31.1944 51.7372 31.6035C51.5127 32.0126 51.2043 32.3698 50.8324 32.6516C50.7282 32.7365 50.6442 32.8435 50.5866 32.9649C50.5289 33.0862 50.499 33.2189 50.499 33.3533C50.499 33.508 50.5421 33.6597 50.6235 33.7914C50.7049 33.923 50.8213 34.0294 50.9597 34.0986C51.0981 34.1678 51.2531 34.1971 51.4072 34.1832C51.5613 34.1693 51.7086 34.1128 51.8324 34.0199C52.4054 33.5773 53.1083 33.336 53.8324 33.3333C54.7164 33.3333 55.5643 33.6845 56.1894 34.3096C56.8145 34.9347 57.1657 35.7826 57.1657 36.6666C57.1657 37.5507 56.8145 38.3985 56.1894 39.0236C55.5643 39.6488 54.7164 39.9999 53.8324 39.9999Z" fill="#2A9EF4" stroke="#2A9EF4" stroke-width="4" mask="url(#path-2-inside-1_58_6189)"/>
</svg>
