<svg width="81" height="80" viewBox="0 0 81 80" fill="none" xmlns="http://www.w3.org/2000/svg">
<rect x="0.5" width="80" height="80" rx="16" fill="#EAF5FE"/>
<path d="M49.8333 37L48.8333 36.25L47.8333 37C47.0817 37.5633 40.5 42.6667 40.5 48.3333C40.5 50.5435 41.378 52.6631 42.9408 54.2259C44.5036 55.7887 46.6232 56.6667 48.8333 56.6667C51.0435 56.6667 53.1631 55.7887 54.7259 54.2259C56.2887 52.6631 57.1667 50.5435 57.1667 48.3333C57.1667 42.6667 50.585 37.5633 49.8333 37ZM48.8333 53.3333C47.5073 53.3333 46.2355 52.8065 45.2978 51.8689C44.3601 50.9312 43.8333 49.6594 43.8333 48.3333C43.8333 45.4867 46.865 42.2167 48.8333 40.4867C50.8017 42.2167 53.8333 45.4867 53.8333 48.3333C53.8333 49.6594 53.3066 50.9312 52.3689 51.8689C51.4312 52.8065 50.1594 53.3333 48.8333 53.3333Z" fill="#2A9EF4"/>
<path d="M33.0917 31.9466L32.1667 31.3333L31.2417 31.9499C31.0083 32.1033 25.5 35.8416 25.5 41.6666C25.5 43.4347 26.2024 45.1304 27.4526 46.3806C28.7029 47.6309 30.3986 48.3333 32.1667 48.3333C33.9348 48.3333 35.6305 47.6309 36.8807 46.3806C38.131 45.1304 38.8333 43.4347 38.8333 41.6666C38.8333 35.8416 33.3333 32.1033 33.0917 31.9466ZM32.1667 44.9999C31.2826 44.9999 30.4348 44.6487 29.8096 44.0236C29.1845 43.3985 28.8333 42.5506 28.8333 41.6666C28.9382 40.4599 29.2879 39.2872 29.861 38.2201C30.4341 37.153 31.2186 36.2138 32.1667 35.4599C33.1146 36.214 33.899 37.1531 34.4721 38.2202C35.0451 39.2873 35.3949 40.4599 35.5 41.6666C35.5 42.5506 35.1488 43.3985 34.5237 44.0236C33.8986 44.6487 33.0507 44.9999 32.1667 44.9999Z" fill="#2A9EF4"/>
<path d="M48.834 30C48.834 27.8733 46.1673 24.97 45.0123 23.8216L43.834 22.6433L42.6557 23.8216C41.5007 24.97 38.834 27.8733 38.834 30C38.834 31.3261 39.3608 32.5978 40.2984 33.5355C41.2361 34.4732 42.5079 35 43.834 35C45.1601 35 46.4318 34.4732 47.3695 33.5355C48.3072 32.5978 48.834 31.3261 48.834 30ZM42.1673 30.0283C42.5572 29.0774 43.1226 28.2084 43.834 27.4666C44.5413 28.2078 45.1063 29.0727 45.5007 30.0183C45.502 30.4603 45.3277 30.8848 45.016 31.1983C44.7044 31.5118 44.281 31.6887 43.839 31.69C43.397 31.6913 42.9725 31.517 42.659 31.2054C42.3455 30.8937 42.1686 30.4703 42.1673 30.0283Z" fill="#2A9EF4"/>
</svg>
